<svg width="248" height="104" viewBox="0 0 248 104" fill="none" xmlns="http://www.w3.org/2000/svg">
<g clip-path="url(#clip0_4957_6565)">
<path d="M52.1989 24.7246C56.2897 24.7246 59.5278 24.966 61.9176 25.4511C68.0018 26.6559 72.8102 29.9251 76.3451 35.254C79.5211 40.0424 80.8345 45.4909 80.2875 51.5973C79.7847 57.3536 77.2731 63.1321 72.7548 68.9306C69.4613 73.1831 65.5964 76.78 61.1601 79.7213C52.9254 85.1809 44.7592 87.5618 36.6684 86.8619C34.035 86.6338 31.5211 85.8409 29.1291 84.4854C26.7371 83.1299 24.8633 81.4311 23.5101 79.3891C21.6895 76.6449 20.8567 73.7612 21.0139 70.7379C21.1712 67.7169 22.3096 64.2373 24.4337 60.3016C15.9198 58.687 9.69168 54.9107 5.75591 48.9749C1.45912 42.4943 0.621913 35.5131 3.24207 28.0314C6.00176 20.1355 11.5167 13.4466 19.7847 7.96492C26.9342 3.22073 33.6585 0.990388 39.9575 1.27167C44.9918 1.51752 48.9497 3.81209 51.8268 8.15318C53.4569 10.6117 54.2941 13.1233 54.3406 15.6881C54.3871 18.2528 53.674 21.2672 52.1989 24.7246ZM47.6562 25.4621C49.2686 22.2794 50.1147 19.5707 50.1945 17.3337C50.2742 15.0989 49.6053 12.9107 48.1878 10.7711C45.7338 7.07012 42.3118 5.27167 37.9242 5.37577C32.7504 5.5441 27.2598 7.55296 21.4503 11.4046C17.2997 14.1554 14.3074 16.8664 12.4669 19.533C10.6286 22.1997 10.2587 24.3636 11.3595 26.0225C12.757 28.1288 17.2421 28.9705 24.8168 28.543C28.5134 28.2971 34.035 27.5795 41.3772 26.3857L47.6562 25.4621ZM28.2875 61.1211C26.901 63.6039 26.0128 65.5928 25.6274 67.0878C24.6086 70.7512 25.0737 74.0513 27.0206 76.986C28.2476 78.8376 29.9242 80.3104 32.0527 81.4046C34.1789 82.4987 36.4425 83.0546 38.8434 83.0701C45.674 83.1831 52.3761 81.059 58.9519 76.7002C63.0361 73.9915 66.1324 71.1565 68.2387 68.1997C70.3451 65.2407 70.8788 62.9793 69.8423 61.4156C68.7216 59.7235 66.1302 58.9372 62.0726 59.0546C59.5433 59.1233 53.5721 59.6814 44.159 60.7313C40.2476 61.2097 34.9586 61.3403 28.2875 61.1211Z" fill="url(#paint0_linear_4957_6565)"/>
<path d="M52.5917 24.4741C56.8552 24.4741 60.2329 24.7266 62.7223 25.2316C69.0634 26.4874 74.0778 29.8938 77.7633 35.4531C81.0745 40.4453 82.4433 46.1242 81.8741 52.4896C81.3491 58.4918 78.7312 64.514 74.0225 70.5583C70.5895 74.9902 66.5607 78.7399 61.9339 81.8074C53.3491 87.4996 44.8375 89.9824 36.399 89.2515C33.6548 89.0123 31.0346 88.1862 28.5407 86.7731C26.0468 85.3601 24.0933 83.5904 22.6825 81.4597C20.7844 78.5982 19.9184 75.5926 20.08 72.4409C20.2439 69.2914 21.4311 65.6635 23.6459 61.5616C14.7689 59.8783 8.27938 55.9426 4.17528 49.7521C-0.30534 42.9968 -1.1802 35.7189 1.55291 27.9182C4.4322 19.6856 10.1797 12.7133 18.7999 6.99904C26.2528 2.05551 33.2628 -0.267852 39.8298 0.0245069C45.0767 0.281428 49.203 2.67345 52.2041 7.19837C53.9029 9.76094 54.7777 12.3789 54.8242 15.0544C54.873 17.7299 54.1288 20.8706 52.5917 24.4763V24.4741ZM47.8563 25.2449C49.5374 21.9271 50.4189 19.1031 50.5031 16.7709C50.5872 14.4409 49.8896 12.1596 48.4101 9.92927C45.8497 6.0688 42.2838 4.19505 37.7102 4.30579C32.317 4.48076 26.5917 6.576 20.5341 10.5915C16.2063 13.4597 13.0856 16.2859 11.1697 19.0655C9.25169 21.8451 8.86852 24.102 10.0158 25.8318C11.4732 28.0289 16.1487 28.9038 24.0446 28.4586C27.8984 28.2017 33.6548 27.4531 41.3093 26.2083L47.8563 25.2449ZM27.6637 62.421C26.2174 65.0079 25.2938 67.0832 24.8907 68.6424C23.8275 72.4608 24.3126 75.9005 26.3436 78.9614C27.6238 80.8905 29.3713 82.4276 31.5883 83.566C33.8054 84.7067 36.1664 85.287 38.6692 85.3025C45.7899 85.4199 52.7777 83.2072 59.6326 78.6602C63.8918 75.8362 67.1188 72.8817 69.3137 69.7964C71.5086 66.7133 72.0645 64.3545 70.9837 62.7244C69.8143 60.9614 67.1144 60.1397 62.884 60.2615C60.2484 60.3324 54.0225 60.9149 44.2085 62.009C40.131 62.5096 34.616 62.6447 27.6614 62.4165L27.6637 62.421Z" fill="url(#paint1_linear_4957_6565)"/>
<path d="M72.9656 93.7793H36.0088C35.3653 93.7793 34.8438 94.3009 34.8438 94.9443V99.0263C34.8438 99.6697 35.3653 100.191 36.0088 100.191H72.9656C73.609 100.191 74.1306 99.6697 74.1306 99.0263V94.9443C74.1306 94.3009 73.609 93.7793 72.9656 93.7793Z" fill="url(#paint2_linear_4957_6565)"/>
<path d="M52.6085 97.5009L51.2663 95.1465C51.2663 95.1465 50.9518 94.5618 50.3316 94.347C49.995 94.2296 49.5143 94.2207 49.5121 94.2207L36.2231 94.2251C35.7513 94.2251 35.3682 94.6083 35.3682 95.0823V98.8852C35.3682 99.3591 35.7513 99.7423 36.2231 99.7423C36.2231 99.7423 49.8444 99.7445 50.0459 99.7423C49.47 99.6537 49.1157 99.069 49.1157 99.069L47.6871 96.533C47.8709 96.0479 49.1755 95.636 49.9174 96.6681L50.418 97.4721C51.1799 98.4754 52.5509 97.7556 52.6085 97.4965" fill="white"/>
<path d="M56.0133 95.9305L55.763 96.4488C55.4884 96.2893 55.1406 96.1764 54.928 96.1764C54.7575 96.1764 54.6423 96.2406 54.6423 96.3668C54.6423 96.8164 56.0199 96.5595 56.0199 97.503C56.0199 98.0235 55.5592 98.3004 54.9767 98.3004C54.5404 98.3004 54.0952 98.1365 53.7852 97.884L54.0421 97.3746C54.3101 97.6094 54.7132 97.7666 54.9834 97.7666C55.1916 97.7666 55.3223 97.6891 55.3223 97.5385C55.3223 97.0778 53.9446 97.3524 53.9446 96.4288C53.9446 95.9482 54.3588 95.6426 54.9834 95.6426C55.3599 95.6426 55.7431 95.7577 56.0111 95.9327L56.0133 95.9305Z" fill="white"/>
<path d="M58.2695 97.4443H56.8586C56.9229 97.6835 57.0934 97.8164 57.3326 97.8164C57.5076 97.8164 57.6781 97.7455 57.8132 97.6127L58.1521 97.9449C57.9483 98.1686 57.6449 98.2993 57.2772 98.2993C56.6217 98.2993 56.2119 97.8895 56.2119 97.2782C56.2119 96.6669 56.6372 96.2461 57.2573 96.2461C57.9638 96.2461 58.316 96.7112 58.2695 97.4443ZM57.6516 97.0988C57.6516 96.853 57.4943 96.6935 57.264 96.6935C57.0336 96.6935 56.8874 96.8574 56.8476 97.0988H57.6516Z" fill="white"/>
<path d="M60.3896 96.6962L59.9289 96.9753C59.8359 96.8446 59.6986 96.7671 59.5236 96.7671C59.2733 96.7671 59.1028 96.9709 59.1028 97.2743C59.1028 97.5777 59.2733 97.7837 59.5236 97.7837C59.7052 97.7837 59.847 97.7084 59.9334 97.5556L60.4029 97.8302C60.239 98.1248 59.9156 98.2953 59.4904 98.2953C58.8724 98.2953 58.4561 97.8856 58.4561 97.2743C58.4561 96.663 58.8769 96.2422 59.4992 96.2422C59.8979 96.2422 60.2169 96.4061 60.394 96.6918L60.3896 96.6962Z" fill="white"/>
<path d="M62.5934 98.2764H61.9489V97.9442C61.8115 98.1834 61.5878 98.3008 61.2977 98.3008C60.8614 98.3008 60.5801 98.0018 60.5801 97.5345V96.2676H61.2246V97.3506C61.2246 97.5898 61.3553 97.7338 61.559 97.7338C61.8049 97.7294 61.9511 97.53 61.9511 97.2576V96.2676H62.5956V98.2742L62.5934 98.2764Z" fill="white"/>
<path d="M63.5283 96.6079C63.6656 96.3731 63.8938 96.2424 64.1795 96.2402V96.8205C63.8074 96.7873 63.5615 96.9623 63.5283 97.2458V98.2779H62.8838V96.2712H63.5283V96.6101V96.6079Z" fill="white"/>
<path d="M65.1387 95.6904C65.1387 95.892 64.9969 96.0337 64.7998 96.0337C64.6027 96.0337 64.4609 95.892 64.4609 95.6904C64.4609 95.4889 64.6027 95.3516 64.7998 95.3516C64.9969 95.3516 65.1387 95.4933 65.1387 95.6904ZM64.4742 98.2751V96.2685H65.1143V98.2751H64.4742Z" fill="white"/>
<path d="M66.8548 98.1662C66.7086 98.2526 66.5115 98.3035 66.3188 98.3035C65.9312 98.3035 65.6521 98.0843 65.6521 97.6657V96.7797H65.373V96.3589H65.6521V95.8008H66.2922V96.3567H66.8171V96.782H66.2922V97.5682C66.2922 97.7255 66.3586 97.7919 66.4782 97.7875C66.5447 97.7875 66.6311 97.7609 66.7285 97.721L66.8548 98.1684V98.1662Z" fill="white"/>
<path d="M67.8408 95.6904C67.8408 95.892 67.6991 96.0337 67.502 96.0337C67.3048 96.0337 67.1631 95.892 67.1631 95.6904C67.1631 95.4889 67.3048 95.3516 67.502 95.3516C67.6991 95.3516 67.8408 95.4933 67.8408 95.6904ZM67.1786 98.2751V96.2685H67.8187V98.2751H67.1786Z" fill="white"/>
<path d="M70.1552 97.4443H68.7444C68.8086 97.6835 68.9792 97.8164 69.2184 97.8164C69.3933 97.8164 69.5639 97.7455 69.699 97.6127L70.0379 97.9449C69.8341 98.1686 69.5307 98.2993 69.163 98.2993C68.5074 98.2993 68.0977 97.8895 68.0977 97.2782C68.0977 96.6669 68.5229 96.2461 69.1431 96.2461C69.8496 96.2461 70.2018 96.7112 70.1552 97.4443ZM69.5373 97.0988C69.5373 96.853 69.38 96.6935 69.1497 96.6935C68.9194 96.6935 68.7732 96.8574 68.7333 97.0988H69.5373Z" fill="white"/>
<path d="M72.0507 96.4667L71.8314 96.8831C71.59 96.7524 71.3663 96.6815 71.198 96.6815C71.0828 96.6815 71.0009 96.7258 71.0009 96.8188C71.0009 97.0935 72.0596 96.9606 72.0551 97.6605C72.0551 98.0746 71.6941 98.3006 71.2091 98.3006C70.8746 98.3006 70.549 98.2031 70.3076 98.0171L70.5114 97.6073C70.7395 97.7668 70.9986 97.8576 71.2223 97.8576C71.3486 97.8576 71.4416 97.8133 71.4416 97.7203C71.4416 97.4257 70.4029 97.5785 70.4073 96.8742C70.4073 96.46 70.7572 96.2363 71.2223 96.2363C71.5125 96.2363 71.8026 96.3183 72.0485 96.4645L72.0507 96.4667Z" fill="white"/>
<path d="M38.2902 95.2852C37.3422 95.2852 36.5781 96.0559 36.5781 97.0039C36.5781 97.8965 37.2514 98.6318 38.1152 98.7204V97.4646C37.9292 97.3959 37.7963 97.2143 37.7963 97.0017C37.7963 96.7292 38.0178 96.5078 38.288 96.5078C38.5582 96.5078 38.7797 96.7314 38.7797 97.0017C38.7797 97.2143 38.6468 97.3959 38.4607 97.4646V98.7204C39.3245 98.6296 39.9978 97.8965 39.9978 97.0039C39.9978 96.0581 39.2293 95.2852 38.2858 95.2852" fill="#10A6E0"/>
<path d="M42.5253 97.0251C42.3437 96.8745 42.1023 96.7726 41.8941 96.6862C41.6062 96.5689 41.3537 96.4603 41.3537 96.2721C41.3537 96.1857 41.3913 96.106 41.4666 96.0528C41.5419 95.993 41.6438 95.962 41.7612 95.962C42.1244 95.962 42.4146 96.2189 42.4146 96.2189L42.4832 96.2898L42.8088 95.6829L42.7712 95.6453C42.7557 95.6298 42.419 95.2754 41.7656 95.2754C41.4489 95.2754 41.161 95.3773 40.9528 95.5589C40.7379 95.7472 40.6206 95.9996 40.6206 96.2787C40.6206 96.5578 40.7269 96.7726 40.9417 96.9498C41.1233 97.1048 41.3492 97.2023 41.5685 97.2931C41.8675 97.4282 42.1244 97.5345 42.1244 97.7339C42.1244 97.8845 42.0226 98.0506 41.7391 98.0506C41.3271 98.0506 40.9949 97.7339 40.9949 97.7339L40.9306 97.6696L40.5342 98.2278L40.5718 98.2699C40.5718 98.2699 40.6781 98.3872 40.8708 98.5068C41.0525 98.6087 41.3426 98.7328 41.728 98.7328C42.0646 98.7328 42.3481 98.6309 42.5519 98.4382C42.7446 98.2566 42.8509 97.9974 42.8509 97.725C42.8509 97.4526 42.7446 97.2089 42.5253 97.0273" fill="#2E2C73"/>
<path d="M45.4352 97.1753C45.3599 97.0579 45.2581 96.9649 45.1407 96.9007C45.3334 96.7456 45.4463 96.5042 45.4463 96.2296C45.4463 95.9549 45.34 95.7202 45.1407 95.5585C44.9546 95.4079 44.6911 95.3281 44.381 95.3281H43.165V98.6858H44.3965C44.7243 98.6858 45.0078 98.5994 45.216 98.4444C45.4508 98.2672 45.5748 98.0037 45.5748 97.6759C45.5748 97.4942 45.5261 97.3215 45.4352 97.1753ZM44.4408 98.0546H43.8738V95.9549H44.3766C44.6003 95.9549 44.7287 96.079 44.7287 96.2982C44.7287 96.5175 44.6113 96.6371 44.381 96.6371H44.2104V97.255H44.4408C44.5692 97.255 44.6756 97.2927 44.7464 97.368C44.8262 97.4477 44.8527 97.5297 44.8527 97.6426C44.8527 97.8951 44.6977 98.0568 44.4408 98.0568" fill="#2E2C73"/>
<path d="M46.6556 95.3203H45.9004V98.6824H46.6556V95.3203Z" fill="#2E2C73"/>
<path d="M47.307 101.152L46.9947 102.796H46.709L47.0213 101.152H47.307Z" fill="#2E2C73"/>
<path d="M47.3291 102.798L47.4819 101.978C47.5107 101.836 47.5284 101.712 47.5439 101.611H47.7942L47.7699 101.825H47.7743C47.885 101.664 48.0356 101.584 48.2017 101.584C48.3679 101.584 48.5052 101.686 48.5052 101.912C48.5052 101.965 48.4963 102.049 48.483 102.109L48.3524 102.8H48.0689L48.1951 102.129C48.2017 102.085 48.2106 102.034 48.2106 101.987C48.2106 101.89 48.173 101.817 48.0622 101.817C47.9338 101.817 47.7676 101.972 47.7167 102.251L47.6148 102.8H47.3313L47.3291 102.798Z" fill="#2E2C73"/>
<path d="M49.0123 101.61L49.0877 102.199C49.1032 102.341 49.1164 102.431 49.1209 102.509H49.1275C49.1563 102.434 49.1917 102.347 49.256 102.205L49.5506 101.607H49.8651L49.205 102.795H48.9193L48.7178 101.607H49.0101L49.0123 101.61Z" fill="#2E2C73"/>
<path d="M50.7486 102.729C50.6313 102.791 50.474 102.824 50.33 102.824C50 102.824 49.8428 102.623 49.8428 102.333C49.8428 101.974 50.1063 101.584 50.5161 101.584C50.7509 101.584 50.8993 101.721 50.8993 101.918C50.8993 102.224 50.5803 102.322 50.1218 102.31C50.1174 102.353 50.1263 102.432 50.1529 102.479C50.1994 102.559 50.2835 102.601 50.3965 102.601C50.5316 102.601 50.6379 102.567 50.7243 102.523L50.7509 102.731L50.7486 102.729ZM50.629 101.916C50.629 101.841 50.567 101.794 50.4784 101.794C50.3012 101.794 50.1839 101.954 50.1484 102.098C50.4408 102.102 50.629 102.06 50.629 101.921V101.916Z" fill="#2E2C73"/>
<path d="M51.0142 102.532C51.0763 102.565 51.1914 102.612 51.2999 102.612C51.4151 102.61 51.4838 102.543 51.4838 102.466C51.4838 102.388 51.4439 102.344 51.3287 102.282C51.1914 102.209 51.094 102.109 51.094 101.972C51.094 101.741 51.2933 101.582 51.5746 101.582C51.6986 101.582 51.8005 101.611 51.8559 101.644L51.7828 101.85C51.7385 101.826 51.6588 101.797 51.5613 101.797C51.455 101.797 51.3819 101.854 51.3819 101.936C51.3819 102.003 51.4351 102.049 51.5347 102.1C51.6632 102.171 51.7806 102.269 51.7806 102.419C51.7806 102.681 51.5613 102.827 51.2756 102.827C51.1361 102.825 51.0076 102.785 50.9434 102.738L51.0164 102.534L51.0142 102.532Z" fill="#2E2C73"/>
<path d="M52.5583 101.305L52.5007 101.61H52.7687L52.7244 101.83H52.4586L52.3634 102.31C52.3545 102.363 52.3434 102.428 52.3434 102.476C52.3434 102.543 52.3722 102.583 52.4475 102.583C52.4807 102.583 52.5162 102.58 52.545 102.576L52.5184 102.8C52.4763 102.815 52.401 102.824 52.3323 102.824C52.1374 102.824 52.0488 102.713 52.0488 102.578C52.0488 102.512 52.0555 102.448 52.0754 102.359L52.1773 101.83H52.0156L52.0577 101.61H52.2194L52.2615 101.391L52.556 101.305H52.5583Z" fill="#2E2C73"/>
<path d="M52.7666 102.798L52.9172 101.978C52.9438 101.836 52.9637 101.712 52.9748 101.611H53.2206L53.1963 101.819H53.1985C53.3115 101.659 53.4576 101.584 53.6105 101.584C53.7965 101.584 53.8807 101.701 53.8917 101.828C53.9958 101.664 54.1487 101.586 54.3103 101.584C54.4742 101.584 54.6005 101.688 54.6005 101.901C54.6005 101.952 54.5916 102.04 54.5806 102.102L54.4499 102.798H54.1752L54.2993 102.133C54.3059 102.085 54.317 102.031 54.317 101.983C54.317 101.883 54.2749 101.814 54.1708 101.814C54.0423 101.814 53.8984 101.978 53.8519 102.229L53.7456 102.798H53.4731L53.5994 102.124C53.6082 102.076 53.6149 102.029 53.6149 101.985C53.6149 101.894 53.5883 101.814 53.4731 101.814C53.3425 101.814 53.1896 101.992 53.1453 102.233L53.0435 102.796H52.7688L52.7666 102.798Z" fill="#2E2C73"/>
<path d="M55.7008 102.729C55.5834 102.791 55.4262 102.824 55.2822 102.824C54.9522 102.824 54.7949 102.623 54.7949 102.333C54.7949 101.974 55.0585 101.584 55.4682 101.584C55.703 101.584 55.8514 101.721 55.8514 101.918C55.8514 102.224 55.5325 102.322 55.074 102.31C55.0696 102.353 55.0784 102.432 55.105 102.479C55.1515 102.559 55.2357 102.601 55.3486 102.601C55.4837 102.601 55.5901 102.567 55.6764 102.523L55.703 102.731L55.7008 102.729ZM55.5812 101.916C55.5812 101.841 55.5192 101.794 55.4306 101.794C55.2534 101.794 55.136 101.954 55.1006 102.098C55.3929 102.102 55.5812 102.06 55.5812 101.921V101.916Z" fill="#2E2C73"/>
<path d="M55.9375 102.798L56.0903 101.978C56.1191 101.836 56.1368 101.712 56.1523 101.611H56.4026L56.3783 101.825H56.3827C56.4934 101.664 56.644 101.584 56.8101 101.584C56.9763 101.584 57.1136 101.686 57.1136 101.912C57.1136 101.965 57.1047 102.049 57.0914 102.109L56.9608 102.8H56.6773L56.8035 102.129C56.8101 102.085 56.819 102.034 56.819 101.987C56.819 101.89 56.7814 101.817 56.6706 101.817C56.5422 101.817 56.376 101.972 56.3251 102.251L56.2232 102.8H55.9397L55.9375 102.798Z" fill="#2E2C73"/>
<path d="M57.8825 101.305L57.8249 101.61H58.0929L58.0486 101.83H57.7828L57.6876 102.31C57.6787 102.363 57.6676 102.428 57.6676 102.476C57.6676 102.543 57.6964 102.583 57.7717 102.583C57.805 102.583 57.8404 102.58 57.8692 102.576L57.8426 102.8C57.8005 102.815 57.7252 102.824 57.6566 102.824C57.4617 102.824 57.3731 102.713 57.3731 102.578C57.3731 102.512 57.3797 102.448 57.3996 102.359L57.5015 101.83H57.3398L57.3819 101.61H57.5436L57.5857 101.391L57.8803 101.305H57.8825Z" fill="#2E2C73"/>
<path d="M59.3176 102.798C59.3198 102.727 59.3309 102.632 59.3397 102.53H59.3331C59.2157 102.749 59.0606 102.825 58.9078 102.825C58.6952 102.825 58.5557 102.658 58.5557 102.419C58.5557 102.014 58.8392 101.582 59.3929 101.582C59.5213 101.582 59.6609 101.606 59.7517 101.635L59.6299 102.255C59.5966 102.433 59.5767 102.656 59.5811 102.796H59.3176V102.798ZM59.435 101.815C59.4062 101.808 59.3685 101.804 59.3176 101.804C59.054 101.804 58.8525 102.098 58.8525 102.368C58.8525 102.492 58.899 102.594 59.023 102.594C59.1537 102.594 59.3154 102.428 59.3707 102.127L59.435 101.815Z" fill="#2E2C73"/>
<path d="M61.083 101.61L60.9279 102.429C60.9014 102.571 60.8836 102.695 60.8703 102.797H60.6201L60.6444 102.589H60.64C60.5248 102.741 60.3764 102.823 60.228 102.823C60.0553 102.823 59.918 102.73 59.918 102.487C59.918 102.422 59.9246 102.356 59.9423 102.274L60.0686 101.607H60.3521L60.2303 102.256C60.2192 102.314 60.2103 102.374 60.2103 102.42C60.2103 102.518 60.2502 102.589 60.3609 102.589C60.4916 102.589 60.6467 102.434 60.6932 102.185L60.8039 101.607H61.0874L61.083 101.61Z" fill="#2E2C73"/>
<path d="M61.1846 102.798L61.3241 102.067C61.3551 101.899 61.3706 101.719 61.3861 101.611H61.632C61.6253 101.691 61.6165 101.775 61.6054 101.861H61.612C61.6918 101.699 61.8224 101.582 61.9841 101.582C62.0041 101.582 62.0262 101.584 62.0461 101.586L61.9908 101.866C61.9753 101.863 61.9575 101.861 61.9376 101.861C61.7361 101.861 61.6054 102.067 61.5589 102.32L61.4681 102.798H61.1846Z" fill="#2E2C73"/>
<path d="M63.0451 101.402H62.5889L62.6376 101.154H63.8358L63.7871 101.402H63.3286L63.0651 102.798H62.7793L63.0451 101.402Z" fill="#2E2C73"/>
<path d="M63.5791 102.798L63.7186 102.067C63.7496 101.899 63.7651 101.719 63.7807 101.611H64.0265C64.0199 101.691 64.011 101.775 63.9999 101.861H64.0066C64.0863 101.699 64.217 101.582 64.3787 101.582C64.3986 101.582 64.4207 101.584 64.4407 101.586L64.3853 101.866C64.3698 101.863 64.3521 101.861 64.3321 101.861C64.1306 101.861 63.9999 102.067 63.9534 102.32L63.8626 102.798H63.5791Z" fill="#2E2C73"/>
<path d="M65.6543 101.61L65.4992 102.429C65.4726 102.571 65.4549 102.695 65.4416 102.797H65.1914L65.2157 102.589H65.2113C65.0961 102.741 64.9477 102.823 64.7993 102.823C64.6266 102.823 64.4893 102.73 64.4893 102.487C64.4893 102.422 64.4959 102.356 64.5136 102.274L64.6399 101.607H64.9234L64.8015 102.256C64.7905 102.314 64.7816 102.374 64.7816 102.42C64.7816 102.518 64.8215 102.589 64.9322 102.589C65.0629 102.589 65.2179 102.434 65.2645 102.185L65.3752 101.607H65.6587L65.6543 101.61Z" fill="#2E2C73"/>
<path d="M65.7847 102.532C65.8468 102.565 65.9619 102.612 66.0705 102.612C66.1856 102.61 66.2543 102.543 66.2543 102.466C66.2543 102.388 66.2144 102.344 66.0992 102.282C65.9619 102.209 65.8645 102.109 65.8645 101.972C65.8645 101.741 66.0638 101.582 66.3451 101.582C66.4691 101.582 66.571 101.611 66.6264 101.644L66.5533 101.85C66.509 101.826 66.4293 101.797 66.3318 101.797C66.2255 101.797 66.1524 101.854 66.1524 101.936C66.1524 102.003 66.2056 102.049 66.3052 102.1C66.4337 102.171 66.5511 102.269 66.5511 102.419C66.5511 102.681 66.3318 102.827 66.0461 102.827C65.9066 102.825 65.7781 102.785 65.7139 102.738L65.787 102.534L65.7847 102.532Z" fill="#2E2C73"/>
<path d="M67.3288 101.305L67.2712 101.61H67.5392L67.4949 101.83H67.2291L67.1339 102.31C67.125 102.363 67.1139 102.428 67.1139 102.476C67.1139 102.543 67.1427 102.583 67.218 102.583C67.2512 102.583 67.2867 102.58 67.3155 102.576L67.2889 102.8C67.2468 102.815 67.1715 102.824 67.1029 102.824C66.9079 102.824 66.8194 102.713 66.8194 102.578C66.8194 102.512 66.826 102.448 66.8459 102.359L66.9478 101.83H66.7861L66.8282 101.61H66.9899L67.032 101.391L67.3266 101.305H67.3288Z" fill="#2E2C73"/>
<path d="M67.3535 103.093C67.4465 102.907 67.5528 102.652 67.6126 102.448L67.9316 102.424C67.8297 102.654 67.6813 102.916 67.5639 103.073L67.3535 103.093Z" fill="#2E2C73"/>
<path d="M68.873 101.176C69.0081 101.152 69.1543 101.139 69.3071 101.139C69.5707 101.139 69.7789 101.207 69.9096 101.336C70.0225 101.438 70.0978 101.593 70.0978 101.819C70.0978 102.129 69.9716 102.412 69.7634 102.583C69.5729 102.738 69.3315 102.806 68.9949 102.806C68.8221 102.806 68.6604 102.791 68.5674 102.78L68.873 101.174V101.176ZM68.8952 102.565C68.9506 102.572 69.0126 102.574 69.0746 102.574C69.2961 102.574 69.4755 102.503 69.5951 102.372C69.7235 102.235 69.79 102.04 69.79 101.825C69.79 101.553 69.646 101.369 69.3027 101.369C69.2363 101.369 69.1654 101.373 69.1189 101.385L68.8952 102.565Z" fill="#2E2C73"/>
<path d="M71.4024 102.076C71.4024 102.479 71.1189 102.824 70.7136 102.824C70.4146 102.824 70.2285 102.616 70.2285 102.335C70.2285 101.932 70.5098 101.584 70.9129 101.584C71.2318 101.584 71.4002 101.814 71.4002 102.076H71.4024ZM70.5209 102.326C70.5209 102.49 70.6095 102.605 70.7534 102.605C70.9661 102.605 71.1078 102.313 71.1078 102.076C71.1078 101.954 71.0547 101.803 70.8819 101.803C70.656 101.803 70.5231 102.107 70.5231 102.328L70.5209 102.326Z" fill="#2E2C73"/>
<path d="M71.5234 102.798L71.6763 101.978C71.7051 101.836 71.7228 101.712 71.7383 101.611H71.9886L71.9642 101.825H71.9686C72.0794 101.664 72.23 101.584 72.3961 101.584C72.5622 101.584 72.6995 101.686 72.6995 101.912C72.6995 101.965 72.6907 102.049 72.6774 102.109L72.5467 102.8H72.2632L72.3894 102.129C72.3961 102.085 72.4049 102.034 72.4049 101.987C72.4049 101.89 72.3673 101.817 72.2565 101.817C72.1281 101.817 71.962 101.972 71.911 102.251L71.8092 102.8H71.5257L71.5234 102.798Z" fill="#2E2C73"/>
<path d="M74.0684 102.076C74.0684 102.479 73.7849 102.824 73.3796 102.824C73.0806 102.824 72.8945 102.616 72.8945 102.335C72.8945 101.932 73.1758 101.584 73.5789 101.584C73.8979 101.584 74.0662 101.814 74.0662 102.076H74.0684ZM73.1869 102.326C73.1869 102.49 73.2755 102.605 73.4194 102.605C73.6321 102.605 73.7738 102.313 73.7738 102.076C73.7738 101.954 73.7207 101.803 73.5479 101.803C73.322 101.803 73.1891 102.107 73.1891 102.328L73.1869 102.326Z" fill="#2E2C73"/>
<path d="M75.623 93.2071C75.623 93.6723 75.2421 94.0488 74.7769 94.0488C74.3118 94.0488 73.9353 93.6678 73.9375 93.2005C73.9375 92.7354 74.3185 92.3611 74.7836 92.3633C75.2487 92.3633 75.6252 92.7442 75.623 93.2071ZM75.5189 93.2071C75.5189 92.7996 75.1911 92.4696 74.7836 92.4674C74.376 92.4674 74.0438 92.7952 74.0438 93.2027C74.0438 93.6102 74.3716 93.9425 74.7792 93.9425C75.1889 93.9425 75.5211 93.6147 75.5211 93.2049L75.5189 93.2071Z" fill="black"/>
<path d="M74.9497 93.275C75.0162 93.4013 75.0826 93.5231 75.1513 93.6515C75.0959 93.6515 75.045 93.6515 74.9963 93.6515C74.9874 93.6515 74.9763 93.6382 74.9719 93.6294C74.921 93.5341 74.87 93.4389 74.8235 93.3414C74.8102 93.3171 74.7947 93.3082 74.7681 93.3104C74.726 93.3104 74.6818 93.3104 74.6352 93.3104V93.6493H74.4824V92.7678C74.4824 92.7678 74.4869 92.7634 74.4891 92.7634C74.6175 92.7634 74.746 92.7567 74.8744 92.77C75.0826 92.7922 75.1402 92.9516 75.1026 93.1089C75.0893 93.1687 75.0494 93.213 74.9985 93.2462C74.9852 93.2551 74.9697 93.2639 74.952 93.2728L74.9497 93.275ZM74.6352 93.1864C74.6928 93.1864 74.746 93.1864 74.7991 93.1864C74.8146 93.1864 74.8279 93.1842 74.8434 93.1798C74.9143 93.1643 74.9542 93.1133 74.9564 93.0424C74.9564 92.9649 74.921 92.9073 74.8523 92.8963C74.7814 92.8852 74.7083 92.8874 74.6352 92.8852V93.1864Z" fill="black"/>
<path d="M9.09137 98.5286L8.737 97.5252H7.35494L7.00056 98.5286H6.37598L7.72038 94.8984H8.37819L9.72038 98.5286H9.08915H9.09137ZM8.58417 97.0158L8.24087 96.0258C8.22758 95.9837 8.20765 95.9217 8.18329 95.8442C8.15892 95.7667 8.13456 95.6869 8.1102 95.605C8.08583 95.523 8.06368 95.4544 8.04818 95.399C8.03268 95.4677 8.01053 95.543 7.98838 95.6249C7.96623 95.7069 7.94187 95.7866 7.91972 95.8597C7.89757 95.9328 7.87985 95.9881 7.86878 96.028L7.52326 97.018H8.58639L8.58417 97.0158Z" fill="#2E2C73"/>
<path d="M12.082 98.5286L11.041 95.791H11.6567L12.2215 97.399C12.257 97.5009 12.2902 97.6116 12.3212 97.7312C12.35 97.8508 12.3721 97.9505 12.3832 98.0302H12.4031C12.4142 97.9461 12.4364 97.8442 12.4696 97.7268C12.5028 97.6094 12.536 97.4987 12.5715 97.399L13.1363 95.791H13.7498L12.7088 98.5286H12.0864H12.082Z" fill="#2E2C73"/>
<path d="M14.4538 94.7402C14.5424 94.7402 14.6199 94.7646 14.6841 94.8111C14.7483 94.8576 14.7816 94.9418 14.7816 95.0592C14.7816 95.1766 14.7483 95.2563 14.6841 95.305C14.6199 95.3537 14.5424 95.3781 14.4538 95.3781C14.3652 95.3781 14.2832 95.3537 14.2212 95.305C14.157 95.2563 14.126 95.1743 14.126 95.0592C14.126 94.944 14.157 94.8598 14.2212 94.8111C14.2854 94.7624 14.363 94.7402 14.4538 94.7402ZM14.7417 95.7901V98.5276H14.1614V95.7901H14.7417Z" fill="#2E2C73"/>
<path d="M17.4127 97.7471C17.4127 97.9265 17.3684 98.0794 17.282 98.2012C17.1934 98.3252 17.0672 98.4182 16.8989 98.4825C16.7305 98.5467 16.5268 98.5777 16.2853 98.5777C16.0949 98.5777 15.9288 98.5644 15.7914 98.5378C15.6541 98.5113 15.5234 98.4692 15.4016 98.4138V97.911C15.5323 97.9731 15.6785 98.024 15.8402 98.0683C16.0018 98.1126 16.1569 98.1347 16.3009 98.1347C16.4913 98.1347 16.6287 98.1037 16.7128 98.0439C16.797 97.9841 16.8391 97.9044 16.8391 97.8025C16.8391 97.7427 16.8213 97.6896 16.7881 97.643C16.7549 97.5965 16.6907 97.5478 16.5999 97.4969C16.509 97.4459 16.3739 97.3861 16.199 97.3152C16.0262 97.2466 15.88 97.1779 15.7604 97.1071C15.6408 97.0384 15.5522 96.9542 15.4902 96.8568C15.4282 96.7593 15.3994 96.6331 15.3994 96.4803C15.3994 96.2388 15.4947 96.0528 15.6873 95.9265C15.88 95.8003 16.1347 95.7383 16.4492 95.7383C16.6176 95.7383 16.777 95.756 16.9254 95.7892C17.0738 95.8224 17.22 95.8712 17.364 95.9354L17.1801 96.3739C17.0561 96.3186 16.9321 96.2743 16.8081 96.2388C16.684 96.2034 16.5578 96.1857 16.4293 96.1857C16.2787 96.1857 16.1657 96.2078 16.086 96.2543C16.0085 96.3008 15.9686 96.3673 15.9686 96.4515C15.9686 96.5157 15.9886 96.5711 16.0262 96.6154C16.0639 96.6597 16.1303 96.704 16.2233 96.7482C16.3164 96.7925 16.447 96.8479 16.6131 96.9144C16.777 96.9764 16.9188 97.0428 17.0362 97.1115C17.1536 97.1801 17.2466 97.2643 17.313 97.3618C17.3773 97.4614 17.4105 97.5877 17.4105 97.7449L17.4127 97.7471Z" fill="#2E2C73"/>
<path d="M18.3317 94.7402C18.4203 94.7402 18.4978 94.7646 18.562 94.8111C18.6263 94.8576 18.6595 94.9418 18.6595 95.0592C18.6595 95.1766 18.6263 95.2563 18.562 95.305C18.4978 95.3537 18.4203 95.3781 18.3317 95.3781C18.2431 95.3781 18.1612 95.3537 18.0991 95.305C18.0349 95.2563 18.0039 95.1743 18.0039 95.0592C18.0039 94.944 18.0349 94.8598 18.0991 94.8111C18.1634 94.7624 18.2409 94.7402 18.3317 94.7402ZM18.6196 95.7901V98.5276H18.0393V95.7901H18.6196Z" fill="#2E2C73"/>
<path d="M21.8735 97.1536C21.8735 97.3817 21.8447 97.5832 21.7849 97.7604C21.7251 97.9376 21.6387 98.086 21.5258 98.2078C21.4128 98.3296 21.2755 98.4205 21.116 98.4847C20.9566 98.5489 20.775 98.5799 20.5734 98.5799C20.3851 98.5799 20.2124 98.5489 20.0573 98.4847C19.9001 98.4205 19.765 98.3296 19.6498 98.2078C19.5346 98.086 19.4461 97.9376 19.384 97.7604C19.322 97.5832 19.291 97.3817 19.291 97.1536C19.291 96.8523 19.3442 96.5954 19.4483 96.385C19.5524 96.1746 19.703 96.0151 19.8979 95.9044C20.0928 95.7937 20.3231 95.7383 20.5933 95.7383C20.8458 95.7383 21.0673 95.7937 21.26 95.9044C21.4527 96.0151 21.6033 96.1746 21.7118 96.3872C21.8204 96.5976 21.8757 96.8546 21.8757 97.1536H21.8735ZM19.8868 97.1536C19.8868 97.3529 19.9112 97.5234 19.9599 97.6652C20.0086 97.8069 20.0839 97.9155 20.1858 97.9908C20.2877 98.0661 20.4206 98.1037 20.5823 98.1037C20.744 98.1037 20.8746 98.0661 20.9787 97.9908C21.0806 97.9155 21.1559 97.8069 21.2046 97.6652C21.2534 97.5234 21.2755 97.3529 21.2755 97.1536C21.2755 96.9542 21.2511 96.7837 21.2046 96.6464C21.1581 96.509 21.0828 96.4005 20.9787 96.3274C20.8746 96.2543 20.744 96.2167 20.5801 96.2167C20.3386 96.2167 20.1637 96.2986 20.0529 96.4581C19.9422 96.6198 19.8868 96.8523 19.8868 97.1536Z" fill="#2E2C73"/>
<path d="M23.9683 95.7383C24.2762 95.7383 24.5176 95.818 24.6882 95.9775C24.8609 96.1369 24.9473 96.3917 24.9473 96.7438V98.529H24.367V96.8523C24.367 96.6397 24.3227 96.4803 24.2363 96.3739C24.15 96.2676 24.0149 96.2145 23.831 96.2145C23.5652 96.2145 23.3814 96.2964 23.2773 96.4603C23.1732 96.6242 23.1223 96.859 23.1223 97.1691V98.529H22.542V95.7914H22.9938L23.0758 96.1613H23.109C23.1688 96.0661 23.2419 95.9863 23.3305 95.9243C23.4191 95.8623 23.5165 95.8158 23.6273 95.7848C23.738 95.7538 23.851 95.7383 23.9706 95.7383H23.9683Z" fill="#2E2C73"/>
<path d="M27.6548 94.6816V95.6097C27.6548 95.716 27.6526 95.8223 27.6459 95.9242C27.6393 96.026 27.6348 96.108 27.6304 96.1656H27.6548C27.7279 96.046 27.832 95.9463 27.9648 95.8644C28.0977 95.7824 28.2683 95.7425 28.4765 95.7425C28.8021 95.7425 29.0634 95.8621 29.2605 96.0991C29.4576 96.3383 29.5573 96.6905 29.5573 97.1556C29.5573 97.4657 29.513 97.727 29.4222 97.9375C29.3314 98.1479 29.2052 98.3073 29.039 98.4159C28.8729 98.5244 28.6825 98.5775 28.461 98.5775C28.2528 98.5775 28.0844 98.5399 27.9582 98.4624C27.8297 98.3848 27.7301 98.2963 27.657 98.1944H27.6149L27.5086 98.5288H27.0723V94.6816H27.6526H27.6548ZM28.3236 96.2143C28.1598 96.2143 28.0291 96.2475 27.9316 96.314C27.8342 96.3804 27.7655 96.4779 27.7234 96.6085C27.6813 96.7392 27.6592 96.9053 27.657 97.1069V97.1578C27.657 97.4635 27.7057 97.696 27.8009 97.8577C27.8984 98.0194 28.0734 98.0991 28.3281 98.0991C28.5318 98.0991 28.6869 98.0172 28.7954 97.8533C28.9039 97.6894 28.9593 97.4546 28.9593 97.1468C28.9593 96.8389 28.9062 96.6041 28.7976 96.4469C28.6891 96.2896 28.5318 96.2121 28.3236 96.2121V96.2143Z" fill="#2E2C73"/>
<path d="M29.8135 95.7898H30.4469L31.0073 97.3535C31.0316 97.4244 31.0538 97.4931 31.0759 97.5617C31.0959 97.6304 31.1136 97.6968 31.1313 97.7633C31.1468 97.8297 31.1601 97.8962 31.169 97.9604H31.1845C31.2 97.874 31.2243 97.7788 31.2553 97.6725C31.2863 97.5661 31.3196 97.4598 31.3572 97.3513L31.8954 95.7876H32.52L31.3461 98.9017C31.2775 99.0789 31.1955 99.2317 31.0981 99.358C31.0006 99.4842 30.8832 99.5794 30.7504 99.6437C30.6175 99.7079 30.4646 99.7411 30.2919 99.7411C30.2099 99.7411 30.1368 99.7367 30.077 99.7278C30.0172 99.719 29.9641 99.7101 29.922 99.699V99.2339C29.9574 99.2428 29.9995 99.2494 30.0527 99.2561C30.1058 99.2627 30.159 99.2649 30.2166 99.2649C30.3207 99.2649 30.4093 99.245 30.4868 99.2029C30.5621 99.1608 30.6263 99.1032 30.6795 99.0279C30.7326 98.9526 30.7769 98.8685 30.8102 98.771L30.9076 98.5141L29.8157 95.7832L29.8135 95.7898Z" fill="#2E2C73"/>
<path d="M7.47461 47.8012V37.2209C7.47461 36.9197 7.72046 36.6738 8.02167 36.6738H10.097C10.3982 36.6738 10.644 36.9197 10.644 37.2209V47.8012C10.644 48.1024 10.3982 48.3482 10.097 48.3482H8.02167C7.72046 48.3482 7.47461 48.1024 7.47461 47.8012Z" fill="white"/>
<path d="M18.2678 39.1099C19.2003 39.1055 19.9622 39.3646 20.5558 39.8873C21.1493 40.4122 21.4506 41.2539 21.455 42.4144L21.4838 47.7522C21.4838 48.0534 21.2424 48.3015 20.9389 48.3015L18.9101 48.3126C18.6089 48.3126 18.3609 48.0711 18.3609 47.7677L18.3365 43.3801C18.3343 42.7777 18.2435 42.3258 18.0685 42.0202C17.8935 41.7146 17.6145 41.5639 17.2313 41.5662C16.6399 41.5684 16.2457 41.812 16.0441 42.2948C15.8448 42.7777 15.7473 43.4687 15.7518 44.3679L15.7695 47.781C15.7695 48.0822 15.5281 48.3303 15.2246 48.3303L13.1959 48.3413C12.8946 48.3413 12.6466 48.0999 12.6466 47.7965L12.6045 39.843C12.6045 39.5418 12.8459 39.2937 13.1493 39.2937L14.5713 39.2871C14.8038 39.2871 15.0098 39.431 15.0895 39.6481L15.3885 40.4809H15.5081C15.6986 40.1907 15.9268 39.9449 16.1903 39.7411C16.4561 39.5374 16.7595 39.3823 17.105 39.2716C17.4506 39.1631 17.8359 39.1077 18.2612 39.1055L18.2678 39.1099Z" fill="white"/>
<path d="M28.2632 41.6402H27.4327C27.1315 41.6402 26.8856 41.8861 26.8856 42.1873V47.8019C26.8856 48.1031 26.6398 48.349 26.3385 48.349H24.3097C24.0085 48.349 23.7627 48.1031 23.7627 47.8019V42.1873C23.7627 41.8861 23.5168 41.6402 23.2156 41.6402H23.1115C22.8103 41.6402 22.5645 41.3944 22.5645 41.0932V40.4154C22.5645 40.2249 22.6641 40.0478 22.828 39.9481L23.8269 39.3412V39.1906C23.8269 38.4066 23.931 37.7709 24.1392 37.277C24.3474 36.7853 24.6774 36.4221 25.1292 36.1873C25.5811 35.9525 26.1724 35.8351 26.9011 35.8351C27.3707 35.8351 27.7937 35.8728 28.1746 35.9459C28.3828 35.9857 28.5955 36.0367 28.8125 36.0965C29.1159 36.1784 29.2909 36.5018 29.1913 36.7986L28.6973 38.2847C28.5423 38.2427 28.3718 38.205 28.1813 38.174C27.993 38.143 27.7893 38.1253 27.57 38.1253C27.3308 38.1253 27.1558 38.1984 27.0473 38.3445C26.9388 38.4907 26.8834 38.7299 26.8834 39.0599V39.2991H28.261C28.5622 39.2991 28.8081 39.545 28.8081 39.8462V41.0932C28.8081 41.3944 28.5622 41.6402 28.261 41.6402H28.2632ZM31.6298 35.6602C32.0772 35.6602 32.467 35.7532 32.7992 35.9392C33.1315 36.1253 33.2976 36.4952 33.2976 37.0489C33.2976 37.6026 33.1315 37.9503 32.7992 38.1386C32.467 38.3268 32.0772 38.4221 31.6298 38.4221C31.1824 38.4221 30.7815 38.3268 30.4604 38.1386C30.1392 37.9503 29.9775 37.5871 29.9775 37.0489C29.9775 36.5107 30.1392 36.1253 30.4604 35.9392C30.7837 35.7532 31.1735 35.6602 31.6298 35.6602ZM33.178 39.8484V47.8019C33.178 48.1031 32.9321 48.349 32.6309 48.349H30.6021C30.3009 48.349 30.055 48.1031 30.055 47.8019V39.8484C30.055 39.5472 30.3009 39.3014 30.6021 39.3014H32.6309C32.9321 39.3014 33.178 39.5472 33.178 39.8484Z" fill="white"/>
<path d="M40.6839 39.1406C41.6163 39.1406 42.376 39.4042 42.9674 39.9313C43.5587 40.4585 43.8533 41.3023 43.8533 42.4629V47.8006C43.8533 48.1019 43.6074 48.3477 43.3062 48.3477H41.2774C40.9762 48.3477 40.7304 48.1019 40.7304 47.8006V43.413C40.7304 42.8106 40.644 42.3588 40.4712 42.0509C40.2985 41.7453 40.0194 41.5925 39.6362 41.5925C39.0449 41.5925 38.6484 41.8339 38.4469 42.3145C38.2453 42.7951 38.1434 43.4861 38.1434 44.3876V47.8006C38.1434 48.1019 37.8976 48.3477 37.5964 48.3477H35.5676C35.2664 48.3477 35.0205 48.1019 35.0205 47.8006V39.8472C35.0205 39.5459 35.2664 39.3001 35.5676 39.3001H36.9895C37.2221 39.3001 37.428 39.4463 37.5056 39.6655L37.8001 40.4983H37.9197C38.1124 40.2104 38.3406 39.9668 38.6063 39.763C38.8721 39.5592 39.1778 39.4064 39.5255 39.3001C39.871 39.1938 40.2586 39.1406 40.6839 39.1406Z" fill="white"/>
<path d="M47.2402 35.6602C47.6876 35.6602 48.0774 35.7532 48.4096 35.9392C48.7418 36.1253 48.9079 36.4952 48.9079 37.0489C48.9079 37.6026 48.7418 37.9503 48.4096 38.1386C48.0774 38.3268 47.6876 38.4221 47.2402 38.4221C46.7928 38.4221 46.3919 38.3268 46.0707 38.1386C45.7496 37.9503 45.5879 37.5871 45.5879 37.0489C45.5879 36.5107 45.7496 36.1253 46.0707 35.9392C46.3941 35.7532 46.7839 35.6602 47.2402 35.6602ZM48.7905 39.8484V47.8019C48.7905 48.1031 48.5447 48.349 48.2435 48.349H46.2147C45.9135 48.349 45.6676 48.1031 45.6676 47.8019V39.8484C45.6676 39.5472 45.9135 39.3014 46.2147 39.3014H48.2435C48.5447 39.3014 48.7905 39.5472 48.7905 39.8484Z" fill="white"/>
<path d="M55.0741 46.0381C55.3554 46.0381 55.6145 46.0093 55.8493 45.9495C55.8626 45.9451 55.8758 45.9428 55.8891 45.9384C56.2391 45.8476 56.5824 46.1023 56.5824 46.4633V47.6306C56.5824 47.8543 56.4495 48.0602 56.2391 48.1377C56.0021 48.2263 55.7562 48.2994 55.4993 48.3637C55.1184 48.4567 54.6333 48.5032 54.042 48.5032C53.4506 48.5032 52.939 48.4124 52.4916 48.2286C52.0442 48.0447 51.6964 47.7258 51.4506 47.2695C51.2025 46.8155 51.0785 46.1798 51.0785 45.3648V42.182C51.0785 41.8808 50.8327 41.635 50.5314 41.635C50.2302 41.635 49.9844 41.3891 49.9844 41.0879V40.6494C49.9844 40.4722 50.0708 40.3061 50.2147 40.202L51.2468 39.4733C51.3288 39.4157 51.3952 39.3338 51.4351 39.2407L52.0397 37.8166C52.1261 37.6151 52.3232 37.4844 52.5425 37.4844H53.6787C53.9799 37.4844 54.2258 37.7302 54.2258 38.0314V38.749C54.2258 39.0503 54.4716 39.2961 54.7729 39.2961H55.898C56.1992 39.2961 56.4451 39.542 56.4451 39.8432V41.0901C56.4451 41.3914 56.1992 41.6372 55.898 41.6372H54.7729C54.4716 41.6372 54.2258 41.883 54.2258 42.1843V45.1588C54.2258 45.4512 54.3011 45.6704 54.4495 45.8166C54.5979 45.9628 54.8061 46.0359 55.0719 46.0359L55.0741 46.0381Z" fill="white"/>
<path d="M57.5523 39.3016H59.6254C59.8668 39.3016 60.0816 39.461 60.1503 39.6936L61.5678 44.4932C61.5899 44.5685 61.6099 44.6593 61.632 44.7678C61.6542 44.8763 61.6719 44.9937 61.6874 45.1155C61.7029 45.2373 61.714 45.3569 61.7184 45.4743H61.7826C61.8092 45.2551 61.8402 45.0646 61.8734 44.9029C61.9089 44.7412 61.9421 44.6083 61.9731 44.5064L63.4283 39.6892C63.4969 39.4588 63.7117 39.2993 63.951 39.2993H65.9443C66.3253 39.2993 66.5888 39.6803 66.4559 40.0369L63.1536 48.9206C62.8768 49.6559 62.5556 50.2717 62.1924 50.77C61.8269 51.2683 61.3773 51.6427 60.8435 51.8951C60.3098 52.1476 59.6453 52.2739 58.8524 52.2739C58.5645 52.2739 58.3186 52.2584 58.1126 52.2296C57.9089 52.2008 57.7273 52.1698 57.5744 52.1366V49.6847C57.6918 49.7069 57.8358 49.7268 58.0063 49.749C58.1769 49.7711 58.3541 49.78 58.5401 49.78C58.8856 49.78 59.1669 49.7113 59.3817 49.5718C59.5966 49.4345 59.7738 49.2506 59.9133 49.0247C60.0506 48.7988 60.1724 48.5552 60.2721 48.2938L60.3031 48.2141L57.0407 40.0435C56.8967 39.6847 57.1625 39.2949 57.5478 39.2949L57.5523 39.3016Z" fill="white"/>
<path d="M71.6123 36.4844C72.8438 36.4844 73.8006 36.7324 74.485 37.2286C75.1694 37.7247 75.5127 38.4268 75.5127 39.3393C75.5127 39.9572 75.351 40.4999 75.0298 40.965C74.7065 41.4323 74.1971 41.8376 73.4994 42.1832C74.3632 42.6726 74.9723 43.1621 75.3266 43.6494C75.681 44.1366 75.8582 44.6638 75.8582 45.2286C75.8582 46.2673 75.4817 47.0713 74.7308 47.6427C73.98 48.212 72.9302 48.4977 71.5813 48.4977C70.2325 48.4977 69.1539 48.2186 68.4252 47.6627C67.6943 47.1067 67.3311 46.305 67.3311 45.2618C67.3311 44.5863 67.4927 44.0082 67.8183 43.532C68.1439 43.0558 68.6888 42.6217 69.4573 42.2341C68.8394 41.8177 68.3875 41.3725 68.1018 40.8963C67.8161 40.4201 67.6744 39.8952 67.6744 39.326C67.6744 38.4312 68.0243 37.7335 68.722 37.2352C69.4196 36.7369 70.3853 36.4888 71.6146 36.4888L71.6123 36.4844ZM70.2214 45.1311C70.2214 45.4611 70.3388 45.7269 70.5736 45.9262C70.8084 46.1256 71.1339 46.2252 71.5481 46.2252C72.485 46.2252 72.9545 45.8819 72.9545 45.1931C72.9545 44.9318 72.8526 44.6748 72.6467 44.4224C72.4407 44.1699 72.0752 43.8864 71.5481 43.5719C71.0741 43.8221 70.733 44.0746 70.5293 44.3271C70.3233 44.5796 70.2214 44.8476 70.2214 45.1311ZM71.5946 38.7612C71.3222 38.7612 71.0941 38.8387 70.908 38.996C70.722 39.1533 70.629 39.357 70.629 39.6073C70.629 40.0658 70.9412 40.4711 71.5636 40.821C71.9423 40.6018 72.1993 40.4024 72.3388 40.2208C72.4783 40.0392 72.547 39.8354 72.547 39.6051C72.547 39.3482 72.454 39.1444 72.2679 38.9894C72.0819 38.8343 71.8582 38.7568 71.5968 38.7568L71.5946 38.7612Z" fill="white"/>
<path d="M51.6367 3.50787C52.5224 3.50787 53.2403 2.78994 53.2403 1.90433C53.2403 1.01871 52.5224 0.300781 51.6367 0.300781C50.7511 0.300781 50.0332 1.01871 50.0332 1.90433C50.0332 2.78994 50.7511 3.50787 51.6367 3.50787Z" fill="white" stroke="black" stroke-width="0.239203" stroke-miterlimit="10"/>
<path d="M51.1114 2.3629H50.9187V1.6165H50.6729V1.45703H51.3572V1.6165H51.1114V2.3629Z" fill="black"/>
<path d="M51.8802 2.3629L51.6632 1.65194H51.6565C51.6565 1.66966 51.6565 1.69402 51.661 1.72946C51.661 1.76268 51.6654 1.80033 51.6654 1.83798C51.6654 1.87564 51.6676 1.91107 51.6676 1.94208V2.3629H51.4971V1.45703H51.7584L51.9733 2.14806H51.9777L52.2058 1.45703H52.4672V2.3629H52.2878V1.93544C52.2878 1.90664 52.2878 1.87342 52.2878 1.83798C52.2878 1.80033 52.29 1.76489 52.2922 1.73167C52.2922 1.69845 52.2944 1.67187 52.2966 1.65637H52.29L52.0574 2.36512H51.8825L51.8802 2.3629Z" fill="black"/>
</g>
<path d="M99.4091 47.5469V35.9105H103.477C104.288 35.9105 104.956 36.0507 105.483 36.331C106.009 36.6075 106.402 36.9806 106.659 37.4503C106.917 37.9162 107.045 38.4332 107.045 39.0014C107.045 39.5014 106.956 39.9143 106.778 40.2401C106.604 40.5658 106.373 40.8234 106.085 41.0128C105.801 41.2022 105.492 41.3423 105.159 41.4332V41.5469C105.515 41.5696 105.873 41.6946 106.233 41.9219C106.593 42.1491 106.894 42.4749 107.136 42.8991C107.379 43.3234 107.5 43.8423 107.5 44.456C107.5 45.0393 107.367 45.5639 107.102 46.0298C106.837 46.4957 106.419 46.8651 105.847 47.1378C105.275 47.4105 104.53 47.5469 103.614 47.5469H99.4091ZM100.818 46.2969H103.614C104.534 46.2969 105.188 46.1188 105.574 45.7628C105.964 45.4029 106.159 44.9673 106.159 44.456C106.159 44.062 106.059 43.6984 105.858 43.3651C105.657 43.0279 105.371 42.759 105 42.5582C104.629 42.3537 104.189 42.2514 103.682 42.2514H100.818V46.2969ZM100.818 41.0241H103.432C103.856 41.0241 104.239 40.9408 104.58 40.7741C104.924 40.6075 105.197 40.3726 105.398 40.0696C105.602 39.7666 105.705 39.4105 105.705 39.0014C105.705 38.4901 105.527 38.0563 105.17 37.7003C104.814 37.3404 104.25 37.1605 103.477 37.1605H100.818V41.0241ZM115.134 43.9787V38.8196H116.474V47.5469H115.134V46.0696H115.043C114.838 46.5128 114.52 46.8897 114.088 47.2003C113.656 47.5071 113.111 47.6605 112.452 47.6605C111.906 47.6605 111.421 47.5412 110.997 47.3026C110.573 47.0601 110.24 46.6965 109.997 46.2116C109.755 45.723 109.634 45.1075 109.634 44.3651V38.8196H110.974V44.2741C110.974 44.9105 111.152 45.4181 111.509 45.7969C111.868 46.1757 112.327 46.3651 112.884 46.3651C113.217 46.3651 113.556 46.2798 113.901 46.1094C114.249 45.9389 114.541 45.6776 114.776 45.3253C115.014 44.973 115.134 44.5241 115.134 43.9787ZM118.93 47.5469V38.8196H120.271V47.5469H118.93ZM119.612 37.3651C119.351 37.3651 119.125 37.276 118.936 37.098C118.75 36.92 118.658 36.706 118.658 36.456C118.658 36.206 118.75 35.992 118.936 35.8139C119.125 35.6359 119.351 35.5469 119.612 35.5469C119.874 35.5469 120.097 35.6359 120.283 35.8139C120.472 35.992 120.567 36.206 120.567 36.456C120.567 36.706 120.472 36.92 120.283 37.098C120.097 37.276 119.874 37.3651 119.612 37.3651ZM124.068 35.9105V47.5469H122.727V35.9105H124.068ZM130.32 38.8196V39.956H125.797V38.8196H130.32ZM127.115 36.7287H128.456V45.0469C128.456 45.4257 128.511 45.7098 128.621 45.8991C128.734 46.0848 128.878 46.2098 129.053 46.2741C129.231 46.3348 129.418 46.3651 129.615 46.3651C129.763 46.3651 129.884 46.3575 129.979 46.3423C130.073 46.3234 130.149 46.3082 130.206 46.2969L130.479 47.5014C130.388 47.5355 130.261 47.5696 130.098 47.6037C129.935 47.6416 129.729 47.6605 129.479 47.6605C129.1 47.6605 128.729 47.5791 128.365 47.4162C128.005 47.2533 127.706 47.0052 127.467 46.6719C127.232 46.3385 127.115 45.9181 127.115 45.4105V36.7287ZM137.018 47.5469V35.9105H138.359V40.206H138.473C138.571 40.0545 138.708 39.8613 138.882 39.6264C139.06 39.3878 139.314 39.1757 139.643 38.9901C139.977 38.8007 140.428 38.706 140.996 38.706C141.731 38.706 142.378 38.8897 142.939 39.2571C143.5 39.6245 143.937 40.1454 144.251 40.8196C144.566 41.4938 144.723 42.2893 144.723 43.206C144.723 44.1302 144.566 44.9313 144.251 45.6094C143.937 46.2836 143.501 46.8063 142.945 47.1776C142.388 47.545 141.746 47.7287 141.018 47.7287C140.458 47.7287 140.009 47.6359 139.672 47.4503C139.335 47.2609 139.075 47.0469 138.893 46.8082C138.712 46.5658 138.571 46.3651 138.473 46.206H138.314V47.5469H137.018ZM138.337 43.1832C138.337 43.8423 138.433 44.4238 138.626 44.9276C138.82 45.4276 139.102 45.8196 139.473 46.1037C139.844 46.384 140.299 46.5241 140.837 46.5241C141.397 46.5241 141.865 46.3764 142.24 46.081C142.619 45.7817 142.903 45.3802 143.092 44.8764C143.286 44.3688 143.382 43.8045 143.382 43.1832C143.382 42.5696 143.287 42.0166 143.098 41.5241C142.912 41.0279 142.63 40.6359 142.251 40.348C141.876 40.0563 141.405 39.9105 140.837 39.9105C140.291 39.9105 139.833 40.0488 139.462 40.3253C139.09 40.598 138.81 40.9806 138.621 41.473C138.431 41.9616 138.337 42.5317 138.337 43.1832ZM147.325 50.8196C147.098 50.8196 146.895 50.8007 146.717 50.7628C146.539 50.7287 146.416 50.6946 146.348 50.6605L146.689 49.4787C147.015 49.562 147.303 49.5923 147.553 49.5696C147.803 49.5469 148.024 49.4351 148.217 49.2344C148.414 49.0374 148.594 48.7173 148.757 48.2741L149.007 47.5923L145.78 38.8196H147.234L149.643 45.7741H149.734L152.143 38.8196H153.598L149.893 48.8196C149.727 49.2704 149.52 49.6435 149.274 49.9389C149.028 50.2382 148.742 50.4598 148.416 50.6037C148.094 50.7476 147.731 50.8196 147.325 50.8196ZM160.947 47.5469L159.834 38.8196H161.589L162.232 45.2287H162.317L165.101 38.8196H166.857L167.493 45.2003H167.578L170.345 38.8196H172.101L168.084 47.5469H166.351L165.624 41.2457H165.493L162.675 47.5469H160.947ZM175.709 47.723C174.879 47.723 174.186 47.5336 173.629 47.1548C173.072 46.7723 172.68 46.2382 172.453 45.5526C172.23 44.8632 172.192 44.062 172.339 43.1491C172.483 42.2552 172.773 41.4749 173.209 40.8082C173.648 40.1416 174.197 39.6245 174.857 39.2571C175.519 38.8897 176.256 38.706 177.067 38.706C177.896 38.706 178.588 38.8973 179.141 39.2798C179.697 39.6624 180.089 40.1984 180.317 40.8878C180.544 41.5772 180.584 42.3802 180.436 43.2969C180.292 44.1832 179.999 44.9598 179.555 45.6264C179.116 46.2893 178.567 46.8045 177.908 47.1719C177.249 47.5393 176.516 47.723 175.709 47.723ZM175.805 46.2969C176.351 46.2969 176.826 46.1529 177.232 45.8651C177.641 45.5772 177.974 45.1946 178.232 44.7173C178.489 44.2401 178.665 43.7173 178.76 43.1491C178.847 42.5999 178.845 42.098 178.754 41.6435C178.667 41.1851 178.478 40.8177 178.186 40.5412C177.894 40.2647 177.489 40.1264 176.97 40.1264C176.425 40.1264 175.946 40.2723 175.533 40.5639C175.124 40.8518 174.79 41.2363 174.533 41.7173C174.279 42.1984 174.107 42.723 174.016 43.2912C173.929 43.8366 173.929 44.3385 174.016 44.7969C174.103 45.2514 174.292 45.6151 174.584 45.8878C174.875 46.1605 175.283 46.2969 175.805 46.2969ZM181.639 47.5469L183.094 38.8196H184.724L184.486 40.2401H184.594C184.859 39.759 185.219 39.384 185.673 39.1151C186.132 38.8423 186.651 38.706 187.23 38.706C187.806 38.706 188.27 38.8423 188.622 39.1151C188.978 39.3878 189.211 39.7628 189.321 40.2401H189.412C189.692 39.7704 190.084 39.3973 190.588 39.1207C191.092 38.8442 191.658 38.706 192.287 38.706C193.071 38.706 193.673 38.956 194.094 39.456C194.518 39.9522 194.647 40.6984 194.48 41.6946L193.503 47.5469H191.798L192.753 41.8537C192.848 41.259 192.757 40.831 192.48 40.5696C192.204 40.3045 191.842 40.1719 191.395 40.1719C190.842 40.1719 190.384 40.3423 190.02 40.6832C189.656 41.0204 189.433 41.4541 189.349 41.9844L188.412 47.5469H186.724L187.696 41.7457C187.772 41.2685 187.685 40.8878 187.435 40.6037C187.188 40.3158 186.829 40.1719 186.355 40.1719C186.033 40.1719 185.721 40.2571 185.418 40.4276C185.118 40.598 184.863 40.8329 184.651 41.1321C184.438 41.4313 184.3 41.776 184.236 42.1662L183.338 47.5469H181.639ZM199.513 47.723C198.657 47.723 197.948 47.5393 197.388 47.1719C196.831 46.8007 196.441 46.2798 196.217 45.6094C195.994 44.9351 195.958 44.1454 196.109 43.2401C196.257 42.3461 196.554 41.5582 197.001 40.8764C197.448 40.1946 198.005 39.6624 198.672 39.2798C199.342 38.8973 200.083 38.706 200.893 38.706C201.386 38.706 201.85 38.7874 202.286 38.9503C202.725 39.1132 203.098 39.3688 203.405 39.7173C203.712 40.0658 203.924 40.5185 204.041 41.0753C204.162 41.6283 204.159 42.3007 204.03 43.0923L203.933 43.6946H196.99L197.189 42.4219H202.462C202.541 41.9749 202.52 41.5791 202.399 41.2344C202.278 40.8859 202.07 40.6113 201.774 40.4105C201.482 40.2098 201.115 40.1094 200.672 40.1094C200.217 40.1094 199.793 40.2287 199.399 40.4673C199.005 40.706 198.676 41.0109 198.411 41.3821C198.149 41.7495 197.984 42.1283 197.916 42.5185L197.717 43.6832C197.619 44.3196 197.636 44.831 197.768 45.2173C197.905 45.6037 198.143 45.884 198.484 46.0582C198.825 46.2325 199.251 46.3196 199.763 46.3196C200.092 46.3196 200.397 46.2741 200.678 46.1832C200.962 46.0885 201.214 45.9503 201.433 45.7685C201.653 45.5829 201.837 45.3518 201.984 45.0753L203.541 45.3651C203.333 45.8385 203.034 46.2533 202.643 46.6094C202.253 46.9616 201.793 47.2363 201.263 47.4332C200.736 47.6264 200.153 47.723 199.513 47.723ZM207.753 42.3651L206.901 47.5469H205.202L206.656 38.8196H208.287L208.048 40.2401H208.156C208.433 39.7741 208.81 39.4029 209.287 39.1264C209.768 38.8461 210.336 38.706 210.991 38.706C211.582 38.706 212.079 38.831 212.48 39.081C212.885 39.3272 213.171 39.6946 213.338 40.1832C213.509 40.6719 213.535 41.276 213.418 41.9957L212.486 47.5469H210.787L211.679 42.2003C211.781 41.5677 211.698 41.0734 211.429 40.7173C211.164 40.3575 210.741 40.1776 210.162 40.1776C209.768 40.1776 209.402 40.2628 209.065 40.4332C208.732 40.6037 208.45 40.8537 208.219 41.1832C207.991 41.509 207.836 41.9029 207.753 42.3651ZM217.571 45.956L217.48 46.5696C217.416 47.0014 217.317 47.4635 217.185 47.956C217.056 48.4484 216.921 48.9124 216.781 49.348C216.641 49.7836 216.526 50.1302 216.435 50.3878H215.412C215.461 50.1454 215.526 49.8253 215.605 49.4276C215.685 49.0298 215.764 48.5848 215.844 48.0923C215.927 47.6037 215.995 47.1037 216.048 46.5923L216.116 45.956H217.571ZM103.114 57.8196V58.956H98.4091V57.8196H103.114ZM99.8182 66.5469V56.6151C99.8182 56.1151 99.9356 55.6984 100.17 55.3651C100.405 55.0317 100.71 54.7817 101.085 54.6151C101.46 54.4484 101.856 54.3651 102.273 54.3651C102.602 54.3651 102.871 54.3916 103.08 54.4446C103.288 54.4976 103.443 54.5469 103.545 54.5923L103.159 55.7514C103.091 55.7287 102.996 55.7003 102.875 55.6662C102.758 55.6321 102.602 55.6151 102.409 55.6151C101.966 55.6151 101.646 55.7268 101.449 55.9503C101.256 56.1738 101.159 56.5014 101.159 56.9332V66.5469H99.8182ZM108.179 66.7287C107.391 66.7287 106.7 66.5412 106.105 66.1662C105.514 65.7912 105.052 65.2666 104.719 64.5923C104.389 63.9181 104.224 63.1302 104.224 62.2287C104.224 61.3196 104.389 60.526 104.719 59.848C105.052 59.17 105.514 58.6435 106.105 58.2685C106.7 57.8935 107.391 57.706 108.179 57.706C108.967 57.706 109.656 57.8935 110.247 58.2685C110.842 58.6435 111.304 59.17 111.634 59.848C111.967 60.526 112.134 61.3196 112.134 62.2287C112.134 63.1302 111.967 63.9181 111.634 64.5923C111.304 65.2666 110.842 65.7912 110.247 66.1662C109.656 66.5412 108.967 66.7287 108.179 66.7287ZM108.179 65.5241C108.777 65.5241 109.27 65.3707 109.656 65.0639C110.043 64.7571 110.329 64.3537 110.514 63.8537C110.7 63.3537 110.793 62.812 110.793 62.2287C110.793 61.6454 110.7 61.1018 110.514 60.598C110.329 60.0942 110.043 59.687 109.656 59.3764C109.27 59.0658 108.777 58.9105 108.179 58.9105C107.58 58.9105 107.088 59.0658 106.702 59.3764C106.315 59.687 106.029 60.0942 105.844 60.598C105.658 61.1018 105.565 61.6454 105.565 62.2287C105.565 62.812 105.658 63.3537 105.844 63.8537C106.029 64.3537 106.315 64.7571 106.702 65.0639C107.088 65.3707 107.58 65.5241 108.179 65.5241ZM114.18 66.5469V57.8196H115.476V59.1378H115.567C115.726 58.706 116.014 58.3556 116.43 58.0866C116.847 57.8177 117.317 57.6832 117.839 57.6832C117.938 57.6832 118.061 57.6851 118.209 57.6889C118.357 57.6927 118.468 57.6984 118.544 57.706V59.0696C118.499 59.0582 118.394 59.0412 118.232 59.0185C118.072 58.992 117.904 58.9787 117.726 58.9787C117.302 58.9787 116.923 59.0677 116.589 59.2457C116.26 59.42 115.999 59.6624 115.805 59.973C115.616 60.2798 115.521 60.6302 115.521 61.0241V66.5469H114.18ZM125.713 66.5469L124.599 57.8196H126.355L126.997 64.2287H127.082L129.866 57.8196H131.622L132.259 64.2003H132.344L135.111 57.8196H136.866L132.849 66.5469H131.116L130.389 60.2457H130.259L127.44 66.5469H125.713ZM140.474 66.723C139.645 66.723 138.952 66.5336 138.395 66.1548C137.838 65.7723 137.446 65.2382 137.219 64.5526C136.995 63.8632 136.957 63.062 137.105 62.1491C137.249 61.2552 137.539 60.4749 137.974 59.8082C138.414 59.1416 138.963 58.6245 139.622 58.2571C140.285 57.8897 141.022 57.706 141.832 57.706C142.662 57.706 143.353 57.8973 143.906 58.2798C144.463 58.6624 144.855 59.1984 145.082 59.8878C145.31 60.5772 145.349 61.3802 145.202 62.2969C145.058 63.1832 144.764 63.9598 144.321 64.6264C143.882 65.2893 143.332 65.8045 142.673 66.1719C142.014 66.5393 141.281 66.723 140.474 66.723ZM140.571 65.2969C141.116 65.2969 141.592 65.1529 141.997 64.8651C142.406 64.5772 142.74 64.1946 142.997 63.7173C143.255 63.2401 143.431 62.7173 143.526 62.1491C143.613 61.5999 143.611 61.098 143.52 60.6435C143.433 60.1851 143.243 59.8177 142.952 59.5412C142.66 59.2647 142.255 59.1264 141.736 59.1264C141.19 59.1264 140.711 59.2723 140.298 59.5639C139.889 59.8518 139.556 60.2363 139.298 60.7173C139.045 61.1984 138.872 61.723 138.781 62.2912C138.694 62.8366 138.694 63.3385 138.781 63.7969C138.868 64.2514 139.058 64.6151 139.349 64.8878C139.641 65.1605 140.048 65.2969 140.571 65.2969ZM146.405 66.5469L147.859 57.8196H149.49L149.251 59.2401H149.359C149.625 58.759 149.984 58.384 150.439 58.1151C150.897 57.8423 151.416 57.706 151.996 57.706C152.571 57.706 153.036 57.8423 153.388 58.1151C153.744 58.3878 153.977 58.7628 154.087 59.2401H154.178C154.458 58.7704 154.85 58.3973 155.354 58.1207C155.857 57.8442 156.424 57.706 157.053 57.706C157.837 57.706 158.439 57.956 158.859 58.456C159.284 58.9522 159.412 59.6984 159.246 60.6946L158.268 66.5469H156.564L157.518 60.8537C157.613 60.259 157.522 59.831 157.246 59.5696C156.969 59.3045 156.607 59.1719 156.161 59.1719C155.607 59.1719 155.149 59.3423 154.786 59.6832C154.422 60.0204 154.198 60.4541 154.115 60.9844L153.178 66.5469H151.49L152.462 60.7457C152.537 60.2685 152.45 59.8878 152.2 59.6037C151.954 59.3158 151.594 59.1719 151.121 59.1719C150.799 59.1719 150.486 59.2571 150.183 59.4276C149.884 59.598 149.628 59.8329 149.416 60.1321C149.204 60.4313 149.066 60.776 149.001 61.1662L148.104 66.5469H146.405ZM164.278 66.723C163.422 66.723 162.714 66.5393 162.153 66.1719C161.597 65.8007 161.206 65.2798 160.983 64.6094C160.759 63.9351 160.723 63.1454 160.875 62.2401C161.023 61.3461 161.32 60.5582 161.767 59.8764C162.214 59.1946 162.771 58.6624 163.438 58.2798C164.108 57.8973 164.848 57.706 165.659 57.706C166.152 57.706 166.616 57.7874 167.051 57.9503C167.491 58.1132 167.864 58.3688 168.17 58.7173C168.477 59.0658 168.689 59.5185 168.807 60.0753C168.928 60.6283 168.924 61.3007 168.795 62.0923L168.699 62.6946H161.756L161.955 61.4219H167.227C167.307 60.9749 167.286 60.5791 167.165 60.2344C167.044 59.8859 166.835 59.6113 166.54 59.4105C166.248 59.2098 165.881 59.1094 165.438 59.1094C164.983 59.1094 164.559 59.2287 164.165 59.4673C163.771 59.706 163.441 60.0109 163.176 60.3821C162.915 60.7495 162.75 61.1283 162.682 61.5185L162.483 62.6832C162.384 63.3196 162.402 63.831 162.534 64.2173C162.67 64.6037 162.909 64.884 163.25 65.0582C163.591 65.2325 164.017 65.3196 164.528 65.3196C164.858 65.3196 165.163 65.2741 165.443 65.1832C165.727 65.0885 165.979 64.9503 166.199 64.7685C166.419 64.5829 166.602 64.3518 166.75 64.0753L168.307 64.3651C168.098 64.8385 167.799 65.2533 167.409 65.6094C167.019 65.9616 166.559 66.2363 166.028 66.4332C165.502 66.6264 164.919 66.723 164.278 66.723ZM172.518 61.3651L171.666 66.5469H169.967L171.422 57.8196H173.053L172.814 59.2401H172.922C173.198 58.7741 173.575 58.4029 174.053 58.1264C174.534 57.8461 175.102 57.706 175.757 57.706C176.348 57.706 176.844 57.831 177.246 58.081C177.651 58.3272 177.937 58.6946 178.104 59.1832C178.274 59.6719 178.301 60.276 178.183 60.9957L177.251 66.5469H175.553L176.445 61.2003C176.547 60.5677 176.464 60.0734 176.195 59.7173C175.929 59.3575 175.507 59.1776 174.928 59.1776C174.534 59.1776 174.168 59.2628 173.831 59.4332C173.498 59.6037 173.215 59.8537 172.984 60.1832C172.757 60.509 172.602 60.9029 172.518 61.3651ZM182.109 54.9105L181.996 63.2741H180.678L180.564 54.9105H182.109ZM181.337 66.6378C181.056 66.6378 180.816 66.5374 180.615 66.3366C180.414 66.1359 180.314 65.8954 180.314 65.6151C180.314 65.3348 180.414 65.0942 180.615 64.8935C180.816 64.6927 181.056 64.5923 181.337 64.5923C181.617 64.5923 181.857 64.6927 182.058 64.8935C182.259 65.0942 182.359 65.3348 182.359 65.6151C182.359 65.8007 182.312 65.9711 182.217 66.1264C182.126 66.2817 182.003 66.4067 181.848 66.5014C181.696 66.5923 181.526 66.6378 181.337 66.6378Z" fill="#05080F"/>
<defs>
<linearGradient id="paint0_linear_4957_6565" x1="25.6961" y1="8.23734" x2="58.8943" y2="81.5463" gradientUnits="userSpaceOnUse">
<stop stop-color="#6C2C5C"/>
<stop offset="1" stop-color="#291124"/>
</linearGradient>
<linearGradient id="paint1_linear_4957_6565" x1="0.744494" y1="44.689" x2="80.3945" y2="44.689" gradientUnits="userSpaceOnUse">
<stop stop-color="#291124"/>
<stop offset="0.51" stop-color="#4A1942"/>
<stop offset="1" stop-color="#6C2C5C"/>
</linearGradient>
<linearGradient id="paint2_linear_4957_6565" x1="35.1214" y1="93.9935" x2="73.9625" y2="93.9935" gradientUnits="userSpaceOnUse">
<stop stop-color="#2E2C73"/>
<stop offset="0.35" stop-color="#2E2C73"/>
<stop offset="0.44" stop-color="#322B72"/>
<stop offset="0.54" stop-color="#3F2A6F"/>
<stop offset="0.65" stop-color="#55296B"/>
<stop offset="0.75" stop-color="#742766"/>
<stop offset="0.86" stop-color="#9B245E"/>
<stop offset="0.98" stop-color="#CB2056"/>
<stop offset="1" stop-color="#D72054"/>
</linearGradient>
<clipPath id="clip0_4957_6565">
<rect width="82" height="103.092" fill="white"/>
</clipPath>
</defs>
</svg>
