<svg width="26" height="33" viewBox="0 0 26 33" fill="none" xmlns="http://www.w3.org/2000/svg">
<path d="M16.5507 7.83832C17.8478 7.83832 18.8745 7.91487 19.6323 8.06866C21.5614 8.4507 23.086 9.48724 24.2068 11.1769C25.2139 12.6952 25.6303 14.4228 25.4569 16.3589C25.2974 18.1841 24.5011 20.0163 23.0685 21.8548C22.0242 23.2032 20.7987 24.3437 19.3921 25.2763C16.7811 27.0074 14.1918 27.7623 11.6264 27.5404C10.7914 27.4681 9.99436 27.2167 9.23592 26.7869C8.47747 26.3571 7.88335 25.8184 7.45427 25.1709C6.877 24.3008 6.61295 23.3865 6.66281 22.4279C6.71267 21.47 7.07364 20.3667 7.74711 19.1188C5.0476 18.6069 3.07283 17.4095 1.8249 15.5274C0.462506 13.4726 0.197049 11.2591 1.02783 8.8868C1.90285 6.38322 3.6515 4.26238 6.27306 2.52427C8.53997 1.02002 10.6721 0.312835 12.6693 0.402022C14.2655 0.479974 15.5205 1.20752 16.4327 2.58396C16.9496 3.36348 17.2151 4.15985 17.2298 4.97307C17.2446 5.7863 17.0184 6.74208 16.5507 7.83832ZM15.1104 8.07217C15.6216 7.06302 15.8899 6.20415 15.9152 5.49486C15.9405 4.78627 15.7284 4.09243 15.2789 3.41404C14.5008 2.24056 13.4158 1.67032 12.0246 1.70332C10.3841 1.75669 8.6432 2.39365 6.80116 3.61489C5.48511 4.4871 4.53635 5.34668 3.95277 6.19221C3.36989 7.03774 3.25261 7.72385 3.60164 8.24985C4.04477 8.9177 5.46685 9.18456 7.8686 9.04903C9.04069 8.97107 10.7914 8.74354 13.1194 8.36502L15.1104 8.07217ZM8.96906 19.3787C8.52944 20.1659 8.24783 20.7965 8.12563 21.2706C7.80259 22.4321 7.95007 23.4785 8.56736 24.409C8.95642 24.9961 9.48803 25.4631 10.1629 25.81C10.8371 26.1569 11.5548 26.3332 12.3161 26.3381C14.4818 26.3739 16.6069 25.7005 18.6919 24.3184C19.9869 23.4595 20.9687 22.5606 21.6365 21.6231C22.3044 20.6849 22.4736 19.9679 22.145 19.4721C21.7896 18.9355 20.968 18.6862 19.6814 18.7234C18.8794 18.7452 16.9861 18.9222 14.0015 19.2551C12.7613 19.4067 11.0843 19.4482 8.96906 19.3787Z" fill="url(#paint0_linear_5117_5388)"/>
<path d="M16.6754 7.75813C18.0273 7.75813 19.0982 7.83819 19.8876 7.99831C21.8982 8.39649 23.4881 9.47658 24.6567 11.2393C25.7065 12.8222 26.1406 14.6228 25.9601 16.6411C25.7936 18.5442 24.9636 20.4537 23.4705 22.3702C22.382 23.7754 21.1046 24.9644 19.6376 25.937C16.9156 27.7418 14.2168 28.5291 11.5411 28.2973C10.671 28.2215 9.84025 27.9595 9.0495 27.5115C8.25875 27.0634 7.63935 26.5023 7.192 25.8267C6.59016 24.9194 6.31558 23.9664 6.36684 22.9671C6.41881 21.9685 6.79522 20.8182 7.49749 19.5176C4.68281 18.9839 2.62517 17.7359 1.32387 15.7731C-0.096815 13.6312 -0.37421 11.3235 0.492386 8.85016C1.40533 6.23983 3.22771 4.0291 5.96093 2.21725C8.32406 0.649795 10.5467 -0.0868818 12.6289 0.00581734C14.2926 0.0872802 15.6009 0.845728 16.5525 2.28046C17.0911 3.09298 17.3685 3.92306 17.3833 4.7714C17.3987 5.61973 17.1628 6.61555 16.6754 7.75884V7.75813ZM15.174 8.00252C15.707 6.95053 15.9865 6.05514 16.0132 5.31565C16.0399 4.57687 15.8186 3.85353 15.3495 3.14635C14.5377 1.9223 13.4071 1.32818 11.9569 1.3633C10.2469 1.41878 8.4315 2.08312 6.51081 3.35633C5.13858 4.26576 4.14909 5.16186 3.54163 6.0432C2.93346 6.92454 2.81197 7.64015 3.17574 8.18862C3.63784 8.88527 5.12032 9.16267 7.6239 9.02151C8.84584 8.94005 10.671 8.70268 13.0981 8.30801L15.174 8.00252ZM8.7714 19.7901C8.31282 20.6103 8.01998 21.2683 7.89216 21.7627C7.55508 22.9734 7.70887 24.0641 8.35285 25.0346C8.75876 25.6463 9.31285 26.1336 10.0158 26.4946C10.7188 26.8563 11.4674 27.0403 12.261 27.0452C14.5187 27.0824 16.7344 26.3808 18.9079 24.9391C20.2584 24.0437 21.2816 23.1069 21.9775 22.1286C22.6735 21.1511 22.8497 20.4031 22.507 19.8863C22.1362 19.3273 21.2802 19.0667 19.9388 19.1053C19.1031 19.1278 17.1291 19.3125 14.0173 19.6594C12.7245 19.8181 10.9758 19.861 8.7707 19.7887L8.7714 19.7901Z" fill="url(#paint1_linear_5117_5388)"/>
<path d="M23.1353 29.7344H11.4172C11.2132 29.7344 11.0479 29.8998 11.0479 30.1038V31.398C11.0479 31.6021 11.2132 31.7674 11.4172 31.7674H23.1353C23.3393 31.7674 23.5046 31.6021 23.5046 31.398V30.1038C23.5046 29.8998 23.3393 29.7344 23.1353 29.7344Z" fill="url(#paint2_linear_5117_5388)"/>
<path d="M16.6803 30.9131L16.2547 30.1666C16.2547 30.1666 16.155 29.9812 15.9584 29.9131C15.8516 29.8759 15.6992 29.873 15.6985 29.873L11.4849 29.8745C11.3354 29.8745 11.2139 29.9959 11.2139 30.1462V31.352C11.2139 31.5023 11.3354 31.6238 11.4849 31.6238C11.4849 31.6238 15.8039 31.6245 15.8678 31.6238C15.6852 31.5957 15.5728 31.4103 15.5728 31.4103L15.1199 30.6062C15.1782 30.4524 15.5918 30.3218 15.8271 30.6491L15.9858 30.904C16.2273 31.2221 16.662 30.9939 16.6803 30.9117" fill="white"/>
<path d="M17.7602 30.4155L17.6808 30.5798C17.5938 30.5293 17.4835 30.4935 17.4161 30.4935C17.362 30.4935 17.3255 30.5138 17.3255 30.5539C17.3255 30.6964 17.7623 30.615 17.7623 30.9141C17.7623 31.0792 17.6162 31.1669 17.4315 31.1669C17.2932 31.1669 17.152 31.115 17.0537 31.0349L17.1352 30.8734C17.2201 30.9478 17.348 30.9977 17.4336 30.9977C17.4997 30.9977 17.5411 30.9731 17.5411 30.9254C17.5411 30.7793 17.1043 30.8664 17.1043 30.5735C17.1043 30.4211 17.2356 30.3242 17.4336 30.3242C17.553 30.3242 17.6745 30.3607 17.7595 30.4162L17.7602 30.4155Z" fill="white"/>
<path d="M18.4756 30.8956H18.0283C18.0487 30.9714 18.1027 31.0135 18.1786 31.0135C18.2341 31.0135 18.2881 30.9911 18.331 30.9489L18.4384 31.0543C18.3738 31.1252 18.2776 31.1666 18.161 31.1666C17.9532 31.1666 17.8232 31.0367 17.8232 30.8429C17.8232 30.6491 17.9581 30.5156 18.1547 30.5156C18.3787 30.5156 18.4904 30.6631 18.4756 30.8956ZM18.2797 30.786C18.2797 30.708 18.2299 30.6575 18.1568 30.6575C18.0838 30.6575 18.0374 30.7095 18.0248 30.786H18.2797Z" fill="white"/>
<path d="M19.1482 30.6596L19.0022 30.7481C18.9727 30.7066 18.9291 30.6821 18.8736 30.6821C18.7943 30.6821 18.7402 30.7467 18.7402 30.8429C18.7402 30.9391 18.7943 31.0044 18.8736 31.0044C18.9312 31.0044 18.9762 30.9805 19.0036 30.9321L19.1524 31.0192C19.1005 31.1126 18.998 31.1666 18.8631 31.1666C18.6672 31.1666 18.5352 31.0367 18.5352 30.8429C18.5352 30.6491 18.6686 30.5156 18.8659 30.5156C18.9923 30.5156 19.0935 30.5676 19.1496 30.6582L19.1482 30.6596Z" fill="white"/>
<path d="M19.8464 31.1604H19.642V31.0551C19.5985 31.1309 19.5275 31.1681 19.4355 31.1681C19.2972 31.1681 19.208 31.0733 19.208 30.9251V30.5234H19.4124V30.8668C19.4124 30.9427 19.4538 30.9883 19.5184 30.9883C19.5964 30.9869 19.6427 30.9237 19.6427 30.8373V30.5234H19.8471V31.1597L19.8464 31.1604Z" fill="white"/>
<path d="M20.1428 30.6302C20.1864 30.5558 20.2587 30.5144 20.3493 30.5137V30.6977C20.2313 30.6871 20.1534 30.7426 20.1428 30.8325V31.1598H19.9385V30.5235H20.1428V30.631V30.6302Z" fill="white"/>
<path d="M20.6534 30.3399C20.6534 30.4038 20.6084 30.4487 20.5459 30.4487C20.4834 30.4487 20.4385 30.4038 20.4385 30.3399C20.4385 30.276 20.4834 30.2324 20.5459 30.2324C20.6084 30.2324 20.6534 30.2774 20.6534 30.3399ZM20.4427 31.1594V30.5232H20.6456V31.1594H20.4427Z" fill="white"/>
<path d="M21.1983 31.125C21.152 31.1524 21.0895 31.1686 21.0284 31.1686C20.9055 31.1686 20.817 31.099 20.817 30.9663V30.6854H20.7285V30.552H20.817V30.375H21.02V30.5513H21.1864V30.6861H21.02V30.9354C21.02 30.9853 21.041 31.0063 21.0789 31.0049C21.1 31.0049 21.1274 30.9965 21.1583 30.9839L21.1983 31.1257V31.125Z" fill="white"/>
<path d="M21.5108 30.3399C21.5108 30.4038 21.4658 30.4487 21.4033 30.4487C21.3408 30.4487 21.2959 30.4038 21.2959 30.3399C21.2959 30.276 21.3408 30.2324 21.4033 30.2324C21.4658 30.2324 21.5108 30.2774 21.5108 30.3399ZM21.3008 31.1594V30.5232H21.5038V31.1594H21.3008Z" fill="white"/>
<path d="M22.2442 30.8956H21.7969C21.8172 30.9714 21.8713 31.0135 21.9471 31.0135C22.0026 31.0135 22.0567 30.9911 22.0995 30.9489L22.207 31.0543C22.1424 31.1252 22.0462 31.1666 21.9296 31.1666C21.7217 31.1666 21.5918 31.0367 21.5918 30.8429C21.5918 30.6491 21.7266 30.5156 21.9233 30.5156C22.1473 30.5156 22.259 30.6631 22.2442 30.8956ZM22.0483 30.786C22.0483 30.708 21.9984 30.6575 21.9254 30.6575C21.8523 30.6575 21.806 30.7095 21.7933 30.786H22.0483Z" fill="white"/>
<path d="M22.8457 30.5867L22.7761 30.7187C22.6996 30.6773 22.6287 30.6548 22.5753 30.6548C22.5388 30.6548 22.5128 30.6689 22.5128 30.6984C22.5128 30.7854 22.8485 30.7433 22.8471 30.9652C22.8471 31.0966 22.7326 31.1682 22.5788 31.1682C22.4727 31.1682 22.3695 31.1373 22.293 31.0783L22.3576 30.9484C22.4299 30.9989 22.5121 31.0277 22.583 31.0277C22.623 31.0277 22.6525 31.0137 22.6525 30.9842C22.6525 30.8908 22.3232 30.9392 22.3246 30.7159C22.3246 30.5846 22.4355 30.5137 22.583 30.5137C22.675 30.5137 22.767 30.5397 22.8449 30.586L22.8457 30.5867Z" fill="white"/>
<path d="M12.1405 30.2109C11.8399 30.2109 11.5977 30.4553 11.5977 30.7559C11.5977 31.0389 11.8111 31.2721 12.085 31.3002V30.902C12.026 30.8802 11.9839 30.8226 11.9839 30.7552C11.9839 30.6688 12.0541 30.5986 12.1398 30.5986C12.2255 30.5986 12.2957 30.6695 12.2957 30.7552C12.2957 30.8226 12.2536 30.8802 12.1946 30.902V31.3002C12.4685 31.2714 12.682 31.0389 12.682 30.7559C12.682 30.456 12.4383 30.2109 12.1391 30.2109" fill="#10A6E0"/>
<path d="M13.4839 30.7638C13.4263 30.716 13.3497 30.6837 13.2837 30.6563C13.1924 30.6191 13.1124 30.5847 13.1124 30.525C13.1124 30.4976 13.1243 30.4723 13.1482 30.4555C13.1721 30.4365 13.2044 30.4267 13.2416 30.4267C13.3568 30.4267 13.4488 30.5082 13.4488 30.5082L13.4705 30.5306L13.5738 30.3382L13.5618 30.3263C13.5569 30.3213 13.4502 30.209 13.243 30.209C13.1426 30.209 13.0513 30.2413 12.9853 30.2989C12.9171 30.3586 12.8799 30.4386 12.8799 30.5271C12.8799 30.6156 12.9136 30.6837 12.9818 30.7399C13.0393 30.7891 13.111 30.82 13.1805 30.8487C13.2753 30.8916 13.3568 30.9253 13.3568 30.9885C13.3568 31.0363 13.3245 31.0889 13.2346 31.0889C13.104 31.0889 12.9986 30.9885 12.9986 30.9885L12.9782 30.9681L12.8525 31.1451L12.8645 31.1584C12.8645 31.1584 12.8982 31.1957 12.9593 31.2336C13.0169 31.2659 13.1089 31.3052 13.2311 31.3052C13.3378 31.3052 13.4277 31.2729 13.4923 31.2118C13.5534 31.1542 13.5871 31.0721 13.5871 30.9857C13.5871 30.8993 13.5534 30.8221 13.4839 30.7645" fill="#2E2C73"/>
<path d="M14.4063 30.8103C14.3825 30.7731 14.3502 30.7436 14.3129 30.7232C14.374 30.6741 14.4099 30.5975 14.4099 30.5104C14.4099 30.4234 14.3761 30.3489 14.3129 30.2976C14.254 30.2499 14.1704 30.2246 14.0721 30.2246H13.6865V31.2892H14.077C14.1809 31.2892 14.2708 31.2619 14.3368 31.2127C14.4113 31.1565 14.4506 31.0729 14.4506 30.969C14.4506 30.9114 14.4351 30.8566 14.4063 30.8103ZM14.091 31.0891H13.9112V30.4234H14.0707C14.1416 30.4234 14.1823 30.4627 14.1823 30.5322C14.1823 30.6017 14.1451 30.6396 14.0721 30.6396H14.018V30.8356H14.091C14.1318 30.8356 14.1655 30.8475 14.1879 30.8714C14.2132 30.8967 14.2216 30.9227 14.2216 30.9585C14.2216 31.0385 14.1725 31.0898 14.091 31.0898" fill="#2E2C73"/>
<path d="M14.7932 30.2227H14.5537V31.2887H14.7932V30.2227Z" fill="#2E2C73"/>
<path d="M15.0002 32.0723L14.9011 32.5933H14.8105L14.9096 32.0723H15.0002Z" fill="#2E2C73"/>
<path d="M15.0068 32.5938L15.0553 32.334C15.0644 32.289 15.07 32.2497 15.075 32.2174H15.1543L15.1466 32.2855H15.148C15.1831 32.2343 15.2309 32.209 15.2835 32.209C15.3362 32.209 15.3797 32.2413 15.3797 32.3129C15.3797 32.3298 15.3769 32.3565 15.3727 32.3754L15.3313 32.5945H15.2414L15.2814 32.3817C15.2835 32.3677 15.2863 32.3515 15.2863 32.3368C15.2863 32.3059 15.2744 32.2827 15.2393 32.2827C15.1986 32.2827 15.1459 32.3319 15.1297 32.4204L15.0974 32.5945H15.0075L15.0068 32.5938Z" fill="#2E2C73"/>
<path d="M15.5407 32.2175L15.5645 32.4043C15.5695 32.4492 15.5737 32.478 15.5751 32.5026H15.5772C15.5863 32.4787 15.5976 32.4514 15.6179 32.4064L15.7113 32.2168H15.811L15.6018 32.5932H15.5112L15.4473 32.2168H15.54L15.5407 32.2175Z" fill="#2E2C73"/>
<path d="M16.0909 32.5721C16.0537 32.5917 16.0039 32.6023 15.9582 32.6023C15.8536 32.6023 15.8037 32.5383 15.8037 32.4464C15.8037 32.3326 15.8873 32.209 16.0172 32.209C16.0916 32.209 16.1387 32.2525 16.1387 32.315C16.1387 32.4119 16.0376 32.4428 15.8922 32.4393C15.8908 32.4527 15.8936 32.478 15.902 32.4927C15.9168 32.518 15.9435 32.5313 15.9793 32.5313C16.0221 32.5313 16.0558 32.5208 16.0832 32.5067L16.0916 32.5728L16.0909 32.5721ZM16.053 32.3143C16.053 32.2904 16.0334 32.2757 16.0053 32.2757C15.9491 32.2757 15.9119 32.3263 15.9006 32.3719C15.9933 32.3733 16.053 32.36 16.053 32.3157V32.3143Z" fill="#2E2C73"/>
<path d="M16.1748 32.5083C16.1945 32.5188 16.231 32.5336 16.2654 32.5336C16.3019 32.5329 16.3237 32.5118 16.3237 32.4872C16.3237 32.4627 16.3111 32.4486 16.2745 32.4289C16.231 32.4058 16.2001 32.3742 16.2001 32.3306C16.2001 32.2576 16.2633 32.207 16.3525 32.207C16.3918 32.207 16.4241 32.2162 16.4417 32.2267L16.4185 32.292C16.4045 32.2843 16.3792 32.2751 16.3483 32.2751C16.3146 32.2751 16.2914 32.2934 16.2914 32.3194C16.2914 32.3405 16.3082 32.3552 16.3398 32.3714C16.3806 32.3938 16.4178 32.4247 16.4178 32.4725C16.4178 32.5554 16.3483 32.6017 16.2577 32.6017C16.2134 32.601 16.1727 32.5884 16.1523 32.5736L16.1755 32.509L16.1748 32.5083Z" fill="#2E2C73"/>
<path d="M16.6652 32.1191L16.647 32.2161H16.7319L16.7179 32.2856H16.6336L16.6034 32.438C16.6006 32.4548 16.5971 32.4752 16.5971 32.4906C16.5971 32.5117 16.6062 32.5243 16.6301 32.5243C16.6406 32.5243 16.6519 32.5236 16.661 32.5222L16.6526 32.5932C16.6392 32.5981 16.6154 32.6009 16.5936 32.6009C16.5318 32.6009 16.5037 32.5658 16.5037 32.5229C16.5037 32.5019 16.5058 32.4815 16.5121 32.4534L16.5444 32.2856H16.4932L16.5065 32.2161H16.5578L16.5711 32.1465L16.6645 32.1191H16.6652Z" fill="#2E2C73"/>
<path d="M16.7305 32.5938L16.7782 32.334C16.7866 32.289 16.793 32.2497 16.7965 32.2174H16.8744L16.8667 32.2834H16.8674C16.9032 32.2329 16.9496 32.209 16.998 32.209C17.057 32.209 17.0837 32.2462 17.0872 32.2862C17.1202 32.2343 17.1687 32.2097 17.2199 32.209C17.2719 32.209 17.3119 32.242 17.3119 32.3094C17.3119 32.3256 17.3091 32.3537 17.3056 32.3733L17.2642 32.5938H17.1771L17.2164 32.3831C17.2185 32.3677 17.2221 32.3508 17.2221 32.3354C17.2221 32.3038 17.2087 32.282 17.1757 32.282C17.135 32.282 17.0893 32.334 17.0746 32.4133L17.0409 32.5938H16.9545L16.9945 32.3803C16.9973 32.3649 16.9994 32.3501 16.9994 32.3361C16.9994 32.3073 16.991 32.282 16.9545 32.282C16.9131 32.282 16.8646 32.3382 16.8506 32.4147L16.8183 32.5931H16.7312L16.7305 32.5938Z" fill="#2E2C73"/>
<path d="M17.6613 32.5721C17.624 32.5917 17.5742 32.6023 17.5285 32.6023C17.4239 32.6023 17.374 32.5383 17.374 32.4464C17.374 32.3326 17.4576 32.209 17.5875 32.209C17.662 32.209 17.709 32.2525 17.709 32.315C17.709 32.4119 17.6079 32.4428 17.4625 32.4393C17.4611 32.4527 17.4639 32.478 17.4723 32.4927C17.4871 32.518 17.5138 32.5313 17.5496 32.5313C17.5924 32.5313 17.6261 32.5208 17.6535 32.5067L17.662 32.5728L17.6613 32.5721ZM17.6233 32.3143C17.6233 32.2904 17.6037 32.2757 17.5756 32.2757C17.5194 32.2757 17.4822 32.3263 17.4709 32.3719C17.5636 32.3733 17.6233 32.36 17.6233 32.3157V32.3143Z" fill="#2E2C73"/>
<path d="M17.7363 32.5938L17.7848 32.334C17.7939 32.289 17.7995 32.2497 17.8044 32.2174H17.8838L17.8761 32.2855H17.8775C17.9126 32.2343 17.9604 32.209 18.013 32.209C18.0657 32.209 18.1092 32.2413 18.1092 32.3129C18.1092 32.3298 18.1064 32.3565 18.1022 32.3754L18.0608 32.5945H17.9709L18.0109 32.3817C18.013 32.3677 18.0158 32.3515 18.0158 32.3368C18.0158 32.3059 18.0039 32.2827 17.9688 32.2827C17.928 32.2827 17.8754 32.3319 17.8592 32.4204L17.8269 32.5945H17.737L17.7363 32.5938Z" fill="#2E2C73"/>
<path d="M18.3527 32.1191L18.3345 32.2161H18.4194L18.4054 32.2856H18.3211L18.2909 32.438C18.2881 32.4548 18.2846 32.4752 18.2846 32.4906C18.2846 32.5117 18.2937 32.5243 18.3176 32.5243C18.3281 32.5243 18.3394 32.5236 18.3485 32.5222L18.3401 32.5932C18.3267 32.5981 18.3029 32.6009 18.2811 32.6009C18.2193 32.6009 18.1912 32.5658 18.1912 32.5229C18.1912 32.5019 18.1933 32.4815 18.1996 32.4534L18.2319 32.2856H18.1807L18.194 32.2161H18.2453L18.2586 32.1465L18.352 32.1191H18.3527Z" fill="#2E2C73"/>
<path d="M18.808 32.5926C18.8087 32.5701 18.8122 32.5399 18.815 32.5076H18.8129C18.7757 32.5771 18.7265 32.601 18.6781 32.601C18.6106 32.601 18.5664 32.5483 18.5664 32.4725C18.5664 32.344 18.6563 32.207 18.8319 32.207C18.8726 32.207 18.9168 32.2148 18.9456 32.2239L18.907 32.4205C18.8965 32.4767 18.8902 32.5476 18.8916 32.5919H18.808V32.5926ZM18.8452 32.2808C18.8361 32.2787 18.8241 32.2773 18.808 32.2773C18.7244 32.2773 18.6605 32.3707 18.6605 32.4563C18.6605 32.4957 18.6753 32.528 18.7146 32.528C18.756 32.528 18.8073 32.4753 18.8248 32.3798L18.8452 32.2808Z" fill="#2E2C73"/>
<path d="M19.3674 32.2175L19.3183 32.4773C19.3099 32.5223 19.3042 32.5616 19.3 32.5939H19.2207L19.2284 32.5279H19.227C19.1905 32.5764 19.1434 32.6023 19.0964 32.6023C19.0416 32.6023 18.998 32.5728 18.998 32.4956C18.998 32.4752 19.0002 32.4542 19.0058 32.4282L19.0458 32.2168H19.1357L19.0971 32.4226C19.0936 32.4408 19.0907 32.4598 19.0907 32.4745C19.0907 32.5054 19.1034 32.5279 19.1385 32.5279C19.1799 32.5279 19.2291 32.4787 19.2438 32.4001L19.279 32.2168H19.3688L19.3674 32.2175Z" fill="#2E2C73"/>
<path d="M19.4004 32.5926L19.4446 32.3608C19.4545 32.3075 19.4594 32.2506 19.4643 32.2162H19.5422C19.5401 32.2414 19.5373 32.2681 19.5338 32.2955H19.5359C19.5612 32.2442 19.6026 32.207 19.6539 32.207C19.6602 32.207 19.6673 32.2077 19.6736 32.2084L19.656 32.2969C19.6511 32.2962 19.6455 32.2955 19.6392 32.2955C19.5753 32.2955 19.5338 32.3608 19.5191 32.4409L19.4903 32.5926H19.4004Z" fill="#2E2C73"/>
<path d="M19.9904 32.1509H19.8457L19.8612 32.0723H20.2411L20.2256 32.1509H20.0803L19.9967 32.5933H19.9061L19.9904 32.1509Z" fill="#2E2C73"/>
<path d="M20.1592 32.5926L20.2034 32.3608C20.2133 32.3075 20.2182 32.2506 20.2231 32.2162H20.301C20.2989 32.2414 20.2961 32.2681 20.2926 32.2955H20.2947C20.32 32.2442 20.3614 32.207 20.4127 32.207C20.419 32.207 20.426 32.2077 20.4324 32.2084L20.4148 32.2969C20.4099 32.2962 20.4043 32.2955 20.3979 32.2955C20.334 32.2955 20.2926 32.3608 20.2779 32.4409L20.2491 32.5926H20.1592Z" fill="#2E2C73"/>
<path d="M20.8176 32.2175L20.7685 32.4773C20.76 32.5223 20.7544 32.5616 20.7502 32.5939H20.6709L20.6786 32.5279H20.6772C20.6407 32.5764 20.5936 32.6023 20.5466 32.6023C20.4918 32.6023 20.4482 32.5728 20.4482 32.4956C20.4482 32.4752 20.4503 32.4542 20.456 32.4282L20.496 32.2168H20.5859L20.5473 32.4226C20.5437 32.4408 20.5409 32.4598 20.5409 32.4745C20.5409 32.5054 20.5536 32.5279 20.5887 32.5279C20.6301 32.5279 20.6793 32.4787 20.694 32.4001L20.7291 32.2168H20.819L20.8176 32.2175Z" fill="#2E2C73"/>
<path d="M20.8584 32.5083C20.8781 32.5188 20.9146 32.5336 20.949 32.5336C20.9855 32.5329 21.0073 32.5118 21.0073 32.4872C21.0073 32.4627 20.9946 32.4486 20.9581 32.4289C20.9146 32.4058 20.8837 32.3742 20.8837 32.3306C20.8837 32.2576 20.9469 32.207 21.0361 32.207C21.0754 32.207 21.1077 32.2162 21.1253 32.2267L21.1021 32.292C21.088 32.2843 21.0628 32.2751 21.0319 32.2751C20.9982 32.2751 20.975 32.2934 20.975 32.3194C20.975 32.3405 20.9918 32.3552 21.0234 32.3714C21.0642 32.3938 21.1014 32.4247 21.1014 32.4725C21.1014 32.5554 21.0319 32.6017 20.9413 32.6017C20.897 32.601 20.8563 32.5884 20.8359 32.5736L20.8591 32.509L20.8584 32.5083Z" fill="#2E2C73"/>
<path d="M21.3478 32.1191L21.3296 32.2161H21.4146L21.4005 32.2856H21.3162L21.286 32.438C21.2832 32.4548 21.2797 32.4752 21.2797 32.4906C21.2797 32.5117 21.2888 32.5243 21.3127 32.5243C21.3233 32.5243 21.3345 32.5236 21.3436 32.5222L21.3352 32.5932C21.3219 32.5981 21.298 32.6009 21.2762 32.6009C21.2144 32.6009 21.1863 32.5658 21.1863 32.5229C21.1863 32.5019 21.1884 32.4815 21.1947 32.4534L21.227 32.2856H21.1758L21.1891 32.2161H21.2404L21.2537 32.1465L21.3471 32.1191H21.3478Z" fill="#2E2C73"/>
<path d="M21.3564 32.6867C21.3859 32.6277 21.4196 32.5469 21.4386 32.4823L21.5397 32.4746C21.5074 32.5476 21.4604 32.6305 21.4232 32.6804L21.3564 32.6867Z" fill="#2E2C73"/>
<path d="M21.8381 32.0783C21.881 32.0706 21.9273 32.0664 21.9758 32.0664C22.0593 32.0664 22.1254 32.0882 22.1668 32.1289C22.2026 32.1612 22.2265 32.2104 22.2265 32.282C22.2265 32.3803 22.1864 32.4702 22.1204 32.5243C22.06 32.5734 21.9835 32.5952 21.8767 32.5952C21.822 32.5952 21.7707 32.5903 21.7412 32.5868L21.8381 32.0776V32.0783ZM21.8451 32.5187C21.8627 32.5208 21.8824 32.5215 21.902 32.5215C21.9723 32.5215 22.0291 32.499 22.0671 32.4576C22.1078 32.414 22.1289 32.3522 22.1289 32.2841C22.1289 32.1977 22.0832 32.1394 21.9744 32.1394C21.9533 32.1394 21.9308 32.1408 21.9161 32.1444L21.8451 32.5187Z" fill="#2E2C73"/>
<path d="M22.6398 32.3649C22.6398 32.4927 22.5499 32.6023 22.4214 32.6023C22.3266 32.6023 22.2676 32.5362 22.2676 32.4471C22.2676 32.3192 22.3568 32.209 22.4846 32.209C22.5857 32.209 22.6391 32.282 22.6391 32.3649H22.6398ZM22.3603 32.4442C22.3603 32.4962 22.3884 32.5327 22.434 32.5327C22.5014 32.5327 22.5464 32.44 22.5464 32.3649C22.5464 32.3263 22.5295 32.2785 22.4747 32.2785C22.4031 32.2785 22.361 32.3747 22.361 32.4449L22.3603 32.4442Z" fill="#2E2C73"/>
<path d="M22.6777 32.5938L22.7262 32.334C22.7353 32.289 22.7409 32.2497 22.7459 32.2174H22.8252L22.8175 32.2855H22.8189C22.854 32.2343 22.9018 32.209 22.9544 32.209C23.0071 32.209 23.0506 32.2413 23.0506 32.3129C23.0506 32.3298 23.0478 32.3565 23.0436 32.3754L23.0022 32.5945H22.9123L22.9523 32.3817C22.9544 32.3677 22.9572 32.3515 22.9572 32.3368C22.9572 32.3059 22.9453 32.2827 22.9102 32.2827C22.8695 32.2827 22.8168 32.3319 22.8006 32.4204L22.7683 32.5945H22.6784L22.6777 32.5938Z" fill="#2E2C73"/>
<path d="M23.4855 32.3649C23.4855 32.4927 23.3956 32.6023 23.2671 32.6023C23.1723 32.6023 23.1133 32.5362 23.1133 32.4471C23.1133 32.3192 23.2025 32.209 23.3303 32.209C23.4314 32.209 23.4848 32.282 23.4848 32.3649H23.4855ZM23.206 32.4442C23.206 32.4962 23.2341 32.5327 23.2797 32.5327C23.3471 32.5327 23.3921 32.44 23.3921 32.3649C23.3921 32.3263 23.3752 32.2785 23.3205 32.2785C23.2488 32.2785 23.2067 32.3747 23.2067 32.4449L23.206 32.4442Z" fill="#2E2C73"/>
<path d="M23.9778 29.5527C23.9778 29.7002 23.857 29.8196 23.7095 29.8196C23.562 29.8196 23.4427 29.6988 23.4434 29.5506C23.4434 29.4031 23.5642 29.2845 23.7116 29.2852C23.8591 29.2852 23.9785 29.4059 23.9778 29.5527ZM23.9448 29.5527C23.9448 29.4235 23.8408 29.3189 23.7116 29.3182C23.5824 29.3182 23.4771 29.4221 23.4771 29.5513C23.4771 29.6805 23.581 29.7859 23.7102 29.7859C23.8401 29.7859 23.9455 29.6819 23.9455 29.552L23.9448 29.5527Z" fill="black"/>
<path d="M23.7644 29.5749C23.7855 29.6149 23.8065 29.6535 23.8283 29.6942C23.8107 29.6942 23.7946 29.6942 23.7791 29.6942C23.7763 29.6942 23.7728 29.69 23.7714 29.6872C23.7553 29.657 23.7391 29.6268 23.7244 29.5959C23.7201 29.5882 23.7152 29.5854 23.7068 29.5861C23.6935 29.5861 23.6794 29.5861 23.6647 29.5861V29.6935H23.6162V29.414C23.6162 29.414 23.6176 29.4126 23.6183 29.4126C23.659 29.4126 23.6998 29.4105 23.7405 29.4147C23.8065 29.4218 23.8248 29.4723 23.8128 29.5222C23.8086 29.5412 23.796 29.5552 23.7798 29.5657C23.7756 29.5685 23.7707 29.5713 23.7651 29.5742L23.7644 29.5749ZM23.6647 29.5468C23.6829 29.5468 23.6998 29.5468 23.7166 29.5468C23.7216 29.5468 23.7258 29.5461 23.7307 29.5447C23.7532 29.5397 23.7658 29.5236 23.7665 29.5011C23.7665 29.4765 23.7553 29.4583 23.7335 29.4548C23.711 29.4513 23.6878 29.452 23.6647 29.4513V29.5468Z" fill="black"/>
<path d="M2.88246 31.2389L2.7701 30.9208H2.33189L2.21952 31.2389H2.02148L2.44776 30.0879H2.65633L3.08191 31.2389H2.88176H2.88246ZM2.72164 30.7593L2.61279 30.4453C2.60858 30.432 2.60226 30.4123 2.59453 30.3878C2.58681 30.3632 2.57908 30.3379 2.57136 30.3119C2.56363 30.2859 2.55661 30.2642 2.5517 30.2466C2.54678 30.2684 2.53976 30.2922 2.53273 30.3182C2.52571 30.3442 2.51799 30.3695 2.51096 30.3927C2.50394 30.4158 2.49832 30.4334 2.49481 30.446L2.38526 30.76H2.72235L2.72164 30.7593Z" fill="#2E2C73"/>
<path d="M3.83104 31.2391L3.50098 30.3711H3.69621L3.87528 30.8809C3.88652 30.9132 3.89705 30.9484 3.90689 30.9863C3.91602 31.0242 3.92304 31.0558 3.92655 31.0811H3.93287C3.93638 31.0544 3.9434 31.0221 3.95394 30.9849C3.96447 30.9477 3.97501 30.9125 3.98624 30.8809L4.16532 30.3711H4.35985L4.02978 31.2391H3.83245H3.83104Z" fill="#2E2C73"/>
<path d="M4.58245 30.0391C4.61054 30.0391 4.63512 30.0468 4.65549 30.0615C4.67585 30.0763 4.68639 30.103 4.68639 30.1402C4.68639 30.1774 4.67585 30.2027 4.65549 30.2181C4.63512 30.2336 4.61054 30.2413 4.58245 30.2413C4.55436 30.2413 4.52838 30.2336 4.50871 30.2181C4.48835 30.2027 4.47852 30.1767 4.47852 30.1402C4.47852 30.1037 4.48835 30.077 4.50871 30.0615C4.52908 30.0461 4.55366 30.0391 4.58245 30.0391ZM4.67375 30.3719V31.2399H4.48975V30.3719H4.67375Z" fill="#2E2C73"/>
<path d="M5.52117 30.9924C5.52117 31.0493 5.50713 31.0978 5.47974 31.1364C5.45165 31.1757 5.41162 31.2052 5.35825 31.2256C5.30487 31.2459 5.24027 31.2558 5.16372 31.2558C5.10332 31.2558 5.05065 31.2516 5.00711 31.2431C4.96357 31.2347 4.92214 31.2214 4.88351 31.2038V31.0444C4.92495 31.0641 4.9713 31.0802 5.02256 31.0943C5.07383 31.1083 5.12299 31.1153 5.16863 31.1153C5.22903 31.1153 5.27257 31.1055 5.29926 31.0865C5.32594 31.0676 5.33929 31.0423 5.33929 31.01C5.33929 30.991 5.33367 30.9742 5.32313 30.9594C5.3126 30.9447 5.29223 30.9292 5.26344 30.9131C5.23465 30.8969 5.19181 30.878 5.13633 30.8555C5.08155 30.8337 5.0352 30.8119 4.99728 30.7895C4.95936 30.7677 4.93127 30.741 4.91161 30.7101C4.89194 30.6792 4.88281 30.6392 4.88281 30.5907C4.88281 30.5142 4.91301 30.4552 4.97411 30.4152C5.0352 30.3751 5.11596 30.3555 5.21569 30.3555C5.26906 30.3555 5.31962 30.3611 5.36667 30.3716C5.41373 30.3822 5.46008 30.3976 5.50572 30.418L5.44743 30.557C5.40811 30.5395 5.36878 30.5254 5.32945 30.5142C5.29013 30.5029 5.2501 30.4973 5.20937 30.4973C5.16161 30.4973 5.1258 30.5043 5.10051 30.5191C5.07594 30.5338 5.06329 30.5549 5.06329 30.5816C5.06329 30.602 5.06962 30.6195 5.08155 30.6336C5.09349 30.6476 5.11456 30.6617 5.14406 30.6757C5.17355 30.6897 5.21498 30.7073 5.26765 30.7284C5.31962 30.748 5.36457 30.7691 5.40179 30.7909C5.43901 30.8126 5.4685 30.8393 5.48957 30.8702C5.50994 30.9018 5.52047 30.9419 5.52047 30.9917L5.52117 30.9924Z" fill="#2E2C73"/>
<path d="M5.81292 30.0391C5.84101 30.0391 5.86559 30.0468 5.88596 30.0615C5.90632 30.0763 5.91686 30.103 5.91686 30.1402C5.91686 30.1774 5.90632 30.2027 5.88596 30.2181C5.86559 30.2336 5.84101 30.2413 5.81292 30.2413C5.78483 30.2413 5.75885 30.2336 5.73918 30.2181C5.71882 30.2027 5.70898 30.1767 5.70898 30.1402C5.70898 30.1037 5.71882 30.077 5.73918 30.0615C5.75955 30.0461 5.78413 30.0391 5.81292 30.0391ZM5.90421 30.3719V31.2399H5.72022V30.3719H5.90421Z" fill="#2E2C73"/>
<path d="M6.93505 30.8042C6.93505 30.8766 6.92592 30.9405 6.90696 30.9966C6.888 31.0528 6.86061 31.0999 6.8248 31.1385C6.78898 31.1771 6.74544 31.2059 6.69488 31.2263C6.64431 31.2466 6.58673 31.2565 6.52282 31.2565C6.46313 31.2565 6.40835 31.2466 6.35919 31.2263C6.30933 31.2059 6.2665 31.1771 6.22998 31.1385C6.19346 31.0999 6.16537 31.0528 6.14571 30.9966C6.12604 30.9405 6.11621 30.8766 6.11621 30.8042C6.11621 30.7087 6.13307 30.6272 6.16607 30.5605C6.19908 30.4938 6.24683 30.4433 6.30863 30.4081C6.37043 30.373 6.44347 30.3555 6.52914 30.3555C6.6092 30.3555 6.67943 30.373 6.74053 30.4081C6.80162 30.4433 6.84938 30.4938 6.88379 30.5612C6.9182 30.6279 6.93576 30.7094 6.93576 30.8042H6.93505ZM6.30512 30.8042C6.30512 30.8674 6.31285 30.9215 6.3283 30.9664C6.34375 31.0114 6.36762 31.0458 6.39993 31.0697C6.43223 31.0936 6.47437 31.1055 6.52563 31.1055C6.5769 31.1055 6.61833 31.0936 6.65134 31.0697C6.68364 31.0458 6.70752 31.0114 6.72297 30.9664C6.73842 30.9215 6.74544 30.8674 6.74544 30.8042C6.74544 30.741 6.73772 30.6869 6.72297 30.6434C6.70822 30.5999 6.68434 30.5654 6.65134 30.5423C6.61833 30.5191 6.5769 30.5072 6.52493 30.5072C6.44838 30.5072 6.3929 30.5331 6.35779 30.5837C6.32268 30.635 6.30512 30.7087 6.30512 30.8042Z" fill="#2E2C73"/>
<path d="M7.59972 30.3555C7.69734 30.3555 7.77388 30.3807 7.82796 30.4313C7.88273 30.4819 7.91012 30.5626 7.91012 30.6743V31.2403H7.72613V30.7087C7.72613 30.6413 7.71208 30.5907 7.68469 30.557C7.65731 30.5233 7.61447 30.5065 7.55618 30.5065C7.47191 30.5065 7.41362 30.5324 7.38061 30.5844C7.34761 30.6364 7.33145 30.7108 7.33145 30.8091V31.2403H7.14746V30.3723H7.29072L7.31671 30.4896H7.32724C7.3462 30.4594 7.36938 30.4341 7.39747 30.4145C7.42556 30.3948 7.45646 30.38 7.49157 30.3702C7.52668 30.3604 7.5625 30.3555 7.60042 30.3555H7.59972Z" fill="#2E2C73"/>
<path d="M8.76868 30.0195V30.3138C8.76868 30.3475 8.76798 30.3812 8.76587 30.4135C8.76376 30.4458 8.76236 30.4718 8.76096 30.49H8.76868C8.79185 30.4521 8.82486 30.4205 8.867 30.3945C8.90913 30.3686 8.96321 30.3559 9.02922 30.3559C9.13245 30.3559 9.21532 30.3938 9.27782 30.469C9.34032 30.5448 9.37193 30.6565 9.37193 30.804C9.37193 30.9023 9.35788 30.9851 9.32909 31.0519C9.3003 31.1186 9.26027 31.1691 9.2076 31.2036C9.15493 31.238 9.09453 31.2548 9.02431 31.2548C8.95829 31.2548 8.90492 31.2429 8.86489 31.2183C8.82416 31.1937 8.79256 31.1656 8.76938 31.1333H8.75604L8.72233 31.2394H8.58398V30.0195H8.76798H8.76868ZM8.98076 30.5055C8.9288 30.5055 8.88736 30.516 8.85646 30.5371C8.82556 30.5582 8.80379 30.5891 8.79045 30.6305C8.77711 30.6719 8.77008 30.7246 8.76938 30.7885V30.8047C8.76938 30.9016 8.78483 30.9753 8.81503 31.0266C8.84593 31.0778 8.90141 31.1031 8.98217 31.1031C9.04678 31.1031 9.09594 31.0771 9.13035 31.0252C9.16476 30.9732 9.18231 30.8988 9.18231 30.8012C9.18231 30.7035 9.16546 30.6291 9.13105 30.5792C9.09664 30.5294 9.04678 30.5048 8.98076 30.5048V30.5055Z" fill="#2E2C73"/>
<path d="M9.45312 30.3712H9.65397L9.83165 30.867C9.83937 30.8895 9.84639 30.9113 9.85342 30.9331C9.85974 30.9548 9.86536 30.9759 9.87097 30.997C9.87589 31.018 9.8801 31.0391 9.88291 31.0595H9.88783C9.89274 31.0321 9.90047 31.0019 9.9103 30.9682C9.92013 30.9345 9.93067 30.9008 9.9426 30.8663L10.1133 30.3705H10.3113L9.93909 31.3579C9.91732 31.4141 9.89134 31.4626 9.86044 31.5026C9.82954 31.5426 9.79232 31.5728 9.75018 31.5932C9.70805 31.6136 9.65959 31.6241 9.60481 31.6241C9.57883 31.6241 9.55566 31.6227 9.53669 31.6199C9.51773 31.6171 9.50088 31.6143 9.48754 31.6107V31.4633C9.49877 31.4661 9.51212 31.4682 9.52897 31.4703C9.54582 31.4724 9.56268 31.4731 9.58094 31.4731C9.61394 31.4731 9.64203 31.4668 9.66661 31.4534C9.69049 31.4401 9.71086 31.4218 9.72771 31.398C9.74457 31.3741 9.75861 31.3474 9.76914 31.3165L9.80004 31.235L9.45383 30.3691L9.45312 30.3712Z" fill="#2E2C73"/>
<path d="M2.37012 15.1551V11.8004C2.37012 11.7049 2.44807 11.627 2.54358 11.627H3.2016C3.29711 11.627 3.37506 11.7049 3.37506 11.8004V15.1551C3.37506 15.2506 3.29711 15.3286 3.2016 15.3286H2.54358C2.44807 15.3286 2.37012 15.2506 2.37012 15.1551Z" fill="white"/>
<path d="M5.79179 12.3998C6.08744 12.3984 6.32902 12.4806 6.51723 12.6463C6.70544 12.8128 6.80094 13.0796 6.80235 13.4476L6.81148 15.1401C6.81148 15.2356 6.73493 15.3142 6.63872 15.3142L5.99545 15.3178C5.89994 15.3178 5.82128 15.2412 5.82128 15.145L5.81356 13.7538C5.81286 13.5628 5.78406 13.4195 5.72858 13.3226C5.67311 13.2257 5.58462 13.178 5.46313 13.1787C5.27562 13.1794 5.15062 13.2566 5.08671 13.4097C5.02351 13.5628 4.99261 13.7819 4.99401 14.067L4.99963 15.1492C4.99963 15.2447 4.92308 15.3234 4.82687 15.3234L4.1836 15.3269C4.08809 15.3269 4.00944 15.2503 4.00944 15.1541L3.99609 12.6323C3.99609 12.5368 4.07264 12.4581 4.16885 12.4581L4.61971 12.456C4.69344 12.456 4.75875 12.5017 4.78404 12.5705L4.87884 12.8345H4.91676C4.97716 12.7425 5.04949 12.6646 5.13306 12.6C5.21733 12.5354 5.31355 12.4862 5.4231 12.4511C5.53265 12.4167 5.65485 12.3991 5.78968 12.3984L5.79179 12.3998Z" fill="white"/>
<path d="M8.96123 13.2028H8.69788C8.60237 13.2028 8.52442 13.2807 8.52442 13.3762V15.1565C8.52442 15.252 8.44647 15.3299 8.35096 15.3299H7.70768C7.61217 15.3299 7.53422 15.252 7.53422 15.1565V13.3762C7.53422 13.2807 7.45627 13.2028 7.36076 13.2028H7.32776C7.23225 13.2028 7.1543 13.1248 7.1543 13.0293V12.8144C7.1543 12.754 7.1859 12.6978 7.23787 12.6662L7.55459 12.4738V12.4261C7.55459 12.1775 7.5876 11.9759 7.65361 11.8193C7.71962 11.6634 7.82426 11.5482 7.96752 11.4738C8.11078 11.3993 8.29829 11.3621 8.52933 11.3621C8.67821 11.3621 8.81235 11.3741 8.93314 11.3972C8.99915 11.4099 9.06657 11.426 9.13539 11.445C9.2316 11.471 9.28708 11.5735 9.25548 11.6676L9.09887 12.1388C9.04971 12.1255 8.99564 12.1135 8.93524 12.1037C8.87555 12.0939 8.81094 12.0883 8.74142 12.0883C8.66557 12.0883 8.61009 12.1114 8.57568 12.1578C8.54127 12.2041 8.52372 12.28 8.52372 12.3846V12.4605H8.96053C9.05603 12.4605 9.13399 12.5384 9.13399 12.6339V13.0293C9.13399 13.1248 9.05603 13.2028 8.96053 13.2028H8.96123ZM10.0287 11.3066C10.1705 11.3066 10.2941 11.3361 10.3995 11.3951C10.5048 11.4541 10.5575 11.5714 10.5575 11.747C10.5575 11.9225 10.5048 12.0328 10.3995 12.0925C10.2941 12.1522 10.1705 12.1824 10.0287 12.1824C9.88681 12.1824 9.7597 12.1522 9.65788 12.0925C9.55605 12.0328 9.50478 11.9176 9.50478 11.747C9.50478 11.5763 9.55605 11.4541 9.65788 11.3951C9.76041 11.3361 9.88401 11.3066 10.0287 11.3066ZM10.5196 12.6346V15.1565C10.5196 15.252 10.4416 15.3299 10.3461 15.3299H9.70282C9.60731 15.3299 9.52936 15.252 9.52936 15.1565V12.6346C9.52936 12.5391 9.60731 12.4612 9.70282 12.4612H10.3461C10.4416 12.4612 10.5196 12.5391 10.5196 12.6346Z" fill="white"/>
<path d="M12.9002 12.4102C13.1958 12.4102 13.4367 12.4937 13.6242 12.6609C13.8117 12.828 13.9051 13.0956 13.9051 13.4636V15.156C13.9051 15.2515 13.8272 15.3295 13.7317 15.3295H13.0884C12.9929 15.3295 12.9149 15.2515 12.9149 15.156V13.7648C12.9149 13.5738 12.8875 13.4305 12.8328 13.3329C12.778 13.236 12.6895 13.1876 12.568 13.1876C12.3805 13.1876 12.2548 13.2641 12.1909 13.4165C12.127 13.5689 12.0947 13.788 12.0947 14.0738V15.156C12.0947 15.2515 12.0167 15.3295 11.9212 15.3295H11.278C11.1824 15.3295 11.1045 15.2515 11.1045 15.156V12.6342C11.1045 12.5387 11.1824 12.4607 11.278 12.4607H11.7288C11.8025 12.4607 11.8679 12.5071 11.8924 12.5766L11.9858 12.8406H12.0238C12.0849 12.7494 12.1572 12.6721 12.2415 12.6075C12.3257 12.5429 12.4226 12.4944 12.5329 12.4607C12.6425 12.427 12.7654 12.4102 12.9002 12.4102Z" fill="white"/>
<path d="M14.979 11.3066C15.1208 11.3066 15.2444 11.3361 15.3498 11.3951C15.4551 11.4541 15.5078 11.5714 15.5078 11.747C15.5078 11.9225 15.4551 12.0328 15.3498 12.0925C15.2444 12.1522 15.1208 12.1824 14.979 12.1824C14.8371 12.1824 14.71 12.1522 14.6082 12.0925C14.5063 12.0328 14.4551 11.9176 14.4551 11.747C14.4551 11.5763 14.5063 11.4541 14.6082 11.3951C14.7107 11.3361 14.8343 11.3066 14.979 11.3066ZM15.4706 12.6346V15.1565C15.4706 15.252 15.3926 15.3299 15.2971 15.3299H14.6538C14.5583 15.3299 14.4804 15.252 14.4804 15.1565V12.6346C14.4804 12.5391 14.5583 12.4612 14.6538 12.4612H15.2971C15.3926 12.4612 15.4706 12.5391 15.4706 12.6346Z" fill="white"/>
<path d="M17.4624 14.5969C17.5516 14.5969 17.6338 14.5878 17.7082 14.5688C17.7124 14.5674 17.7167 14.5667 17.7209 14.5653C17.8318 14.5365 17.9407 14.6173 17.9407 14.7318V15.1018C17.9407 15.1728 17.8985 15.2381 17.8318 15.2627C17.7567 15.2908 17.6787 15.3139 17.5973 15.3343C17.4765 15.3638 17.3227 15.3785 17.1352 15.3785C16.9477 15.3785 16.7855 15.3497 16.6436 15.2915C16.5017 15.2332 16.3915 15.132 16.3135 14.9874C16.2349 14.8434 16.1956 14.6419 16.1956 14.3834V13.3743C16.1956 13.2788 16.1176 13.2008 16.0221 13.2008C15.9266 13.2008 15.8486 13.1229 15.8486 13.0274V12.8883C15.8486 12.8321 15.876 12.7795 15.9217 12.7464L16.2489 12.5154C16.2749 12.4971 16.296 12.4712 16.3086 12.4417L16.5003 11.9901C16.5277 11.9262 16.5902 11.8848 16.6598 11.8848H17.02C17.1155 11.8848 17.1935 11.9627 17.1935 12.0582V12.2858C17.1935 12.3813 17.2714 12.4592 17.3669 12.4592H17.7237C17.8192 12.4592 17.8971 12.5372 17.8971 12.6327V13.0281C17.8971 13.1236 17.8192 13.2015 17.7237 13.2015H17.3669C17.2714 13.2015 17.1935 13.2795 17.1935 13.375V14.3181C17.1935 14.4108 17.2173 14.4803 17.2644 14.5267C17.3115 14.573 17.3775 14.5962 17.4617 14.5962L17.4624 14.5969Z" fill="white"/>
<path d="M18.248 12.4611H18.9054C18.9819 12.4611 19.05 12.5117 19.0718 12.5854L19.5213 14.1072C19.5283 14.1311 19.5346 14.1599 19.5416 14.1943C19.5486 14.2287 19.5543 14.2659 19.5592 14.3045C19.5641 14.3432 19.5676 14.3811 19.569 14.4183H19.5894C19.5978 14.3488 19.6076 14.2884 19.6182 14.2371C19.6294 14.1859 19.6399 14.1437 19.6498 14.1114L20.1112 12.584C20.1329 12.511 20.201 12.4604 20.2769 12.4604H20.9089C21.0297 12.4604 21.1133 12.5812 21.0712 12.6942L20.0241 15.511C19.9363 15.7442 19.8345 15.9394 19.7193 16.0974C19.6034 16.2554 19.4609 16.3741 19.2916 16.4542C19.1224 16.5342 18.9117 16.5743 18.6603 16.5743C18.569 16.5743 18.491 16.5693 18.4257 16.5602C18.3611 16.5511 18.3035 16.5413 18.2551 16.5307V15.7533C18.2923 15.7603 18.3379 15.7667 18.392 15.7737C18.4461 15.7807 18.5023 15.7835 18.5613 15.7835C18.6708 15.7835 18.76 15.7617 18.8281 15.7175C18.8962 15.674 18.9524 15.6157 18.9967 15.544C19.0402 15.4724 19.0788 15.3952 19.1104 15.3123L19.1203 15.287L18.0858 12.6963C18.0402 12.5826 18.1244 12.459 18.2466 12.459L18.248 12.4611Z" fill="white"/>
<path d="M22.7061 11.5664C23.0966 11.5664 23.4 11.6451 23.617 11.8024C23.834 11.9597 23.9428 12.1823 23.9428 12.4716C23.9428 12.6676 23.8915 12.8396 23.7897 12.9871C23.6872 13.1353 23.5257 13.2638 23.3044 13.3733C23.5783 13.5285 23.7715 13.6837 23.8838 13.8382C23.9962 13.9927 24.0524 14.1599 24.0524 14.339C24.0524 14.6683 23.933 14.9232 23.6949 15.1044C23.4568 15.2849 23.124 15.3755 22.6963 15.3755C22.2686 15.3755 21.9266 15.287 21.6956 15.1107C21.4638 14.9345 21.3486 14.6803 21.3486 14.3495C21.3486 14.1353 21.3999 13.952 21.5031 13.801C21.6064 13.65 21.7791 13.5124 22.0228 13.3895C21.8269 13.2575 21.6836 13.1163 21.593 12.9653C21.5024 12.8143 21.4575 12.6479 21.4575 12.4674C21.4575 12.1837 21.5684 11.9625 21.7897 11.8045C22.0109 11.6465 22.3171 11.5678 22.7068 11.5678L22.7061 11.5664ZM22.2651 14.3081C22.2651 14.4127 22.3023 14.497 22.3768 14.5602C22.4512 14.6234 22.5544 14.655 22.6857 14.655C22.9828 14.655 23.1317 14.5461 23.1317 14.3277C23.1317 14.2448 23.0994 14.1634 23.0341 14.0833C22.9688 14.0033 22.8529 13.9134 22.6857 13.8137C22.5355 13.893 22.4273 13.9731 22.3627 14.0531C22.2974 14.1332 22.2651 14.2182 22.2651 14.3081ZM22.7005 12.2883C22.6141 12.2883 22.5418 12.3129 22.4828 12.3628C22.4238 12.4126 22.3943 12.4772 22.3943 12.5566C22.3943 12.702 22.4933 12.8305 22.6907 12.9414C22.8107 12.8719 22.8922 12.8087 22.9365 12.7511C22.9807 12.6935 23.0025 12.6289 23.0025 12.5559C23.0025 12.4744 22.973 12.4098 22.914 12.3607C22.855 12.3115 22.7841 12.2869 22.7012 12.2869L22.7005 12.2883Z" fill="white"/>
<defs>
<linearGradient id="paint0_linear_5117_5388" x1="8.1474" y1="2.61065" x2="18.6737" y2="25.855" gradientUnits="userSpaceOnUse">
<stop stop-color="#6C2C5C"/>
<stop offset="1" stop-color="#291124"/>
</linearGradient>
<linearGradient id="paint1_linear_5117_5388" x1="0.236059" y1="14.1677" x2="25.491" y2="14.1677" gradientUnits="userSpaceOnUse">
<stop stop-color="#291124"/>
<stop offset="0.51" stop-color="#4A1942"/>
<stop offset="1" stop-color="#6C2C5C"/>
</linearGradient>
<linearGradient id="paint2_linear_5117_5388" x1="11.1359" y1="29.8023" x2="23.4513" y2="29.8023" gradientUnits="userSpaceOnUse">
<stop stop-color="#2E2C73"/>
<stop offset="0.35" stop-color="#2E2C73"/>
<stop offset="0.44" stop-color="#322B72"/>
<stop offset="0.54" stop-color="#3F2A6F"/>
<stop offset="0.65" stop-color="#55296B"/>
<stop offset="0.75" stop-color="#742766"/>
<stop offset="0.86" stop-color="#9B245E"/>
<stop offset="0.98" stop-color="#CB2056"/>
<stop offset="1" stop-color="#D72054"/>
</linearGradient>
</defs>
</svg>
